{
.appVersion = "116";
date = "2019-12-03 18:43:55 +0000";
familyName = "New York Time";
featurePrefixes = (
{
automatic = 1;
code = "languagesystem DFLT dflt;\012languagesystem arab dflt;\012languagesystem arab URD;\012";
name = Languagesystems;
}
);
features = (
{
automatic = 1;
code = "feature locl;\012";
name = aalt;
},
{
automatic = 1;
code = "script arab;\012language URD;\012sub four-persian by four-persian.urdu;\012sub six-persian by six-ar;\012sub seven-persian by seven-persian.urdu;\012";
name = locl;
}
);
fontMaster = (
{
ascender = 1950;
capHeight = 1444;
descender = -494;
id = "D54EB2A3-8A7B-4735-A983-926C0FC7353D";
weightValue = 400;
widthValue = 5;
xHeight = 998;
}
);
glyphs = (
{
glyphname = zero;
layers = (
{
layerId = "D54EB2A3-8A7B-4735-A983-926C0FC7353D";
paths = (
{
closed = 1;
nodes = (
"540.667 -14 OFFCURVE",
"476.333 1.5 OFFCURVE",
"415 32.5 CURVE SMOOTH",
"353.667 63.5 OFFCURVE",
"299 109.833 OFFCURVE",
"251 171.5 CURVE SMOOTH",
"203 233.167 OFFCURVE",
"165.167 309.833 OFFCURVE",
"137.5 401.5 CURVE SMOOTH",
"109.833 493.167 OFFCURVE",
"96 599.667 OFFCURVE",
"96 721 CURVE SMOOTH",
"96 846.333 OFFCURVE",
"109.833 955.333 OFFCURVE",
"137.5 1048 CURVE SMOOTH",
"165.167 1140.667 OFFCURVE",
"202.833 1217.333 OFFCURVE",
"250.5 1278 CURVE SMOOTH",
"298.167 1338.667 OFFCURVE",
"352.167 1383.833 OFFCURVE",
"412.5 1413.5 CURVE SMOOTH",
"472.833 1443.167 OFFCURVE",
"535.333 1458 OFFCURVE",
"600 1458 CURVE SMOOTH",
"668 1458 OFFCURVE",
"732.833 1442.5 OFFCURVE",
"794.5 1411.5 CURVE SMOOTH",
"856.167 1380.5 OFFCURVE",
"910.833 1334.167 OFFCURVE",
"958.5 1272.5 CURVE SMOOTH",
"1006.167 1210.833 OFFCURVE",
"1043.667 1134.167 OFFCURVE",
"1071 1042.5 CURVE SMOOTH",
"1098.333 950.833 OFFCURVE",
"1112 844.333 OFFCURVE",
"1112 723 CURVE SMOOTH",
"1112 597.667 OFFCURVE",
"1098.333 488.667 OFFCURVE",
"1071 396 CURVE SMOOTH",
"1043.667 303.333 OFFCURVE",
"1006.5 226.667 OFFCURVE",
"959.5 166 CURVE SMOOTH",
"912.5 105.333 OFFCURVE",
"858.667 60.167 OFFCURVE",
"798 30.5 CURVE SMOOTH",
"737.333 0.833 OFFCURVE",
"674 -14 OFFCURVE",
"608 -14 CURVE SMOOTH",
"608 -14 LINE SMOOTH"
);
},
{
closed = 1;
nodes = (
"656 -11 OFFCURVE",
"698.167 2.333 OFFCURVE",
"734.5 29 CURVE SMOOTH",
"770.833 55.667 OFFCURVE",
"801.333 97.167 OFFCURVE",
"826 153.5 CURVE SMOOTH",
"850.667 209.833 OFFCURVE",
"869.167 282 OFFCURVE",
"881.5 370 CURVE SMOOTH",
"893.833 458 OFFCURVE",
"900 563 OFFCURVE",
"900 685 CURVE SMOOTH",
"900 810.333 OFFCURVE",
"893.5 920.833 OFFCURVE",
"880.5 1016.5 CURVE SMOOTH",
"867.5 1112.167 OFFCURVE",
"848.333 1192.5 OFFCURVE",
"823 1257.5 CURVE SMOOTH",
"797.667 1322.5 OFFCURVE",
"766.333 1371.667 OFFCURVE",
"729 1405 CURVE SMOOTH",
"691.667 1438.333 OFFCURVE",
"648.667 1455 OFFCURVE",
"600 1455 CURVE SMOOTH",
"553.333 1455 OFFCURVE",
"511.833 1441.667 OFFCURVE",
"475.5 1415 CURVE SMOOTH",
"439.167 1388.333 OFFCURVE",
"408.5 1346.833 OFFCURVE",
"383.5 1290.5 CURVE SMOOTH",
"358.5 1234.167 OFFCURVE",
"339.667 1162 OFFCURVE",
"327 1074 CURVE SMOOTH",
"314.333 986 OFFCURVE",
"308 881 OFFCURVE",
"308 759 CURVE SMOOTH",
"308 634.333 OFFCURVE",
"314.667 524 OFFCURVE",
"328 428 CURVE SMOOTH",
"341.333 332 OFFCURVE",
"360.833 251.5 OFFCURVE",
"386.5 186.5 CURVE SMOOTH",
"412.167 121.5 OFFCURVE",
"443.667 72.333 OFFCURVE",
"481 39 CURVE SMOOTH",
"518.333 5.667 OFFCURVE",
"560.667 -11 OFFCURVE",
"608 -11 CURVE",
"608 -11 LINE"
);
}
);
width = 1208;
}
);
note = zero;
unicode = 0030;
},
{
glyphname = one;
layers = (
{
layerId = "D54EB2A3-8A7B-4735-A983-926C0FC7353D";
paths = (
{
closed = 1;
nodes = (
"59 0 LINE",
"59 1 LINE",
"99.667 8.333 OFFCURVE",
"130.833 17.333 OFFCURVE",
"152.5 28 CURVE SMOOTH",
"174.167 38.667 OFFCURVE",
"189.167 54.5 OFFCURVE",
"197.5 75.5 CURVE SMOOTH",
"205.833 96.5 OFFCURVE",
"210 126 OFFCURVE",
"210 164 CURVE SMOOTH",
"210 1314 LINE",
"51 1252 LINE",
"51 1253 LINE",
"98.333 1284.333 OFFCURVE",
"140.5 1316 OFFCURVE",
"177.5 1348 CURVE SMOOTH",
"214.5 1380 OFFCURVE",
"249.333 1413.667 OFFCURVE",
"282 1449 CURVE",
"392 1449 LINE",
"392 164 LINE SMOOTH",
"392 126 OFFCURVE",
"396.333 96.667 OFFCURVE",
"405 76 CURVE SMOOTH",
"413.667 55.333 OFFCURVE",
"429.5 39.667 OFFCURVE",
"452.5 29 CURVE SMOOTH",
"475.5 18.333 OFFCURVE",
"508.333 9 OFFCURVE",
"551 1 CURVE",
"551 0 LINE",
"59 0 LINE"
);
}
);
width = 578;
}
);
note = one;
unicode = 0031;
},
{
glyphname = two;
layers = (
{
layerId = "D54EB2A3-8A7B-4735-A983-926C0FC7353D";
paths = (
{
closed = 1;
nodes = (
"97 0 LINE",
"97 136 LINE",
"115 154 LINE SMOOTH",
"219.667 258.667 OFFCURVE",
"307.5 350.667 OFFCURVE",
"378.5 430 CURVE SMOOTH",
"449.5 509.333 OFFCURVE",
"506.333 581 OFFCURVE",
"549 645 CURVE SMOOTH",
"591.667 709 OFFCURVE",
"622.333 769.667 OFFCURVE",
"641 827 CURVE SMOOTH",
"659.667 884.333 OFFCURVE",
"669 943.667 OFFCURVE",
"669 1005 CURVE SMOOTH",
"669 1104.333 OFFCURVE",
"642 1184.667 OFFCURVE",
"588 1246 CURVE SMOOTH",
"534 1307.333 OFFCURVE",
"464.333 1338 OFFCURVE",
"379 1338 CURVE SMOOTH",
"302.333 1338 OFFCURVE",
"238.5 1317.333 OFFCURVE",
"187.5 1276 CURVE SMOOTH",
"136.5 1234.667 OFFCURVE",
"102.333 1181.667 OFFCURVE",
"85 1117 CURVE",
"85 1123 LINE",
"98.333 1223.667 OFFCURVE",
"140.333 1304.667 OFFCURVE",
"211 1366 CURVE SMOOTH",
"281.667 1427.333 OFFCURVE",
"376 1458 OFFCURVE",
"494 1458 CURVE SMOOTH",
"566.667 1458 OFFCURVE",
"630.5 1442 OFFCURVE",
"685.5 1410 CURVE SMOOTH",
"740.5 1378 OFFCURVE",
"783.5 1333.5 OFFCURVE",
"814.5 1276.5 CURVE SMOOTH",
"845.5 1219.5 OFFCURVE",
"861 1153.667 OFFCURVE",
"861 1079 CURVE SMOOTH",
"861 992.333 OFFCURVE",
"841.667 911 OFFCURVE",
"803 835 CURVE SMOOTH",
"764.333 759 OFFCURVE",
"705 680.333 OFFCURVE",
"625 599 CURVE SMOOTH",
"545 517.667 OFFCURVE",
"442.333 425 OFFCURVE",
"317 321 CURVE SMOOTH",
"116 154 LINE",
"116 154 LINE",
"869 154 LINE",
"861 0 LINE",
"97 0 LINE"
);
}
);
width = 954;
}
);
note = two;
unicode = 0032;
},
{
glyphname = three;
layers = (
{
layerId = "D54EB2A3-8A7B-4735-A983-926C0FC7353D";
paths = (
{
closed = 1;
nodes = (
"377 -14 OFFCURVE",
"316.833 -2.5 OFFCURVE",
"262.5 20.5 CURVE SMOOTH",
"208.167 43.5 OFFCURVE",
"165 75.167 OFFCURVE",
"133 115.5 CURVE SMOOTH",
"101 155.833 OFFCURVE",
"85 202 OFFCURVE",
"85 254 CURVE",
"87 254 LINE",
"87 208.667 OFFCURVE",
"99.667 168.5 OFFCURVE",
"125 133.5 CURVE SMOOTH",
"150.333 98.5 OFFCURVE",
"184 71.167 OFFCURVE",
"226 51.5 CURVE SMOOTH",
"268 31.833 OFFCURVE",
"313.667 22 OFFCURVE",
"363 22 CURVE SMOOTH",
"429.667 22 OFFCURVE",
"488.833 34.833 OFFCURVE",
"540.5 60.5 CURVE SMOOTH",
"592.167 86.167 OFFCURVE",
"632.833 123.833 OFFCURVE",
"662.5 173.5 CURVE SMOOTH",
"692.167 223.167 OFFCURVE",
"707 284 OFFCURVE",
"707 356 CURVE SMOOTH",
"707 429.333 OFFCURVE",
"689.833 495 OFFCURVE",
"655.5 553 CURVE SMOOTH",
"621.167 611 OFFCURVE",
"570.667 657 OFFCURVE",
"504 691 CURVE SMOOTH",
"437.333 725 OFFCURVE",
"355.667 742 OFFCURVE",
"259 742 CURVE",
"259 744 LINE",
"410.333 772.667 OFFCURVE",
"516.667 818 OFFCURVE",
"578 880 CURVE SMOOTH",
"639.333 942 OFFCURVE",
"670 1011.333 OFFCURVE",
"670 1088 CURVE SMOOTH",
"670 1164 OFFCURVE",
"645.333 1224.667 OFFCURVE",
"596 1270 CURVE SMOOTH",
"546.667 1315.333 OFFCURVE",
"482.333 1338 OFFCURVE",
"403 1338 CURVE SMOOTH",
"323.667 1338 OFFCURVE",
"257.333 1318.5 OFFCURVE",
"204 1279.5 CURVE SMOOTH",
"150.667 1240.5 OFFCURVE",
"112.667 1190.333 OFFCURVE",
"90 1129 CURVE",
"90 1135 LINE",
"104 1195 OFFCURVE",
"128.333 1249.333 OFFCURVE",
"163 1298 CURVE SMOOTH",
"197.667 1346.667 OFFCURVE",
"242.667 1385.5 OFFCURVE",
"298 1414.5 CURVE SMOOTH",
"353.333 1443.5 OFFCURVE",
"419 1458 OFFCURVE",
"495 1458 CURVE SMOOTH",
"565.667 1458 OFFCURVE",
"627.833 1444.5 OFFCURVE",
"681.5 1417.5 CURVE SMOOTH",
"735.167 1390.5 OFFCURVE",
"777.333 1353 OFFCURVE",
"808 1305 CURVE SMOOTH",
"838.667 1257 OFFCURVE",
"854 1202 OFFCURVE",
"854 1140 CURVE SMOOTH",
"854 1084 OFFCURVE",
"839.5 1032.833 OFFCURVE",
"810.5 986.5 CURVE SMOOTH",
"781.5 940.167 OFFCURVE",
"741.167 901.833 OFFCURVE",
"689.5 871.5 CURVE SMOOTH",
"637.833 841.167 OFFCURVE",
"577.333 821.667 OFFCURVE",
"508 813 CURVE",
"508 813 LINE",
"586.667 813 OFFCURVE",
"655.5 793.667 OFFCURVE",
"714.5 755 CURVE SMOOTH",
"773.5 716.333 OFFCURVE",
"819.667 665 OFFCURVE",
"853 601 CURVE SMOOTH",
"886.333 537 OFFCURVE",
"903 467.333 OFFCURVE",
"903 392 CURVE SMOOTH",
"903 324 OFFCURVE",
"889 264.667 OFFCURVE",
"861 214 CURVE SMOOTH",
"833 163.333 OFFCURVE",
"796.333 121 OFFCURVE",
"751 87 CURVE SMOOTH",
"705.667 53 OFFCURVE",
"656 27.667 OFFCURVE",
"602 11 CURVE SMOOTH",
"548 -5.667 OFFCURVE",
"495 -14 OFFCURVE",
"443 -14 CURVE SMOOTH",
"443 -14 LINE SMOOTH"
);
},
{
closed = 1;
nodes = (
"150.667 161 OFFCURVE",
"130.167 169.5 OFFCURVE",
"112.5 186.5 CURVE SMOOTH",
"94.833 203.5 OFFCURVE",
"86 226 OFFCURVE",
"86 254 CURVE",
"85 254 LINE",
"85 279.333 OFFCURVE",
"94.167 300.5 OFFCURVE",
"112.5 317.5 CURVE SMOOTH",
"130.833 334.5 OFFCURVE",
"151.667 343 OFFCURVE",
"175 343 CURVE SMOOTH",
"201 343 OFFCURVE",
"222.833 334.333 OFFCURVE",
"240.5 317 CURVE SMOOTH",
"258.167 299.667 OFFCURVE",
"267 278.667 OFFCURVE",
"267 254 CURVE SMOOTH",
"267 226 OFFCURVE",
"257.833 203.5 OFFCURVE",
"239.5 186.5 CURVE SMOOTH",
"221.167 169.5 OFFCURVE",
"199.333 161 OFFCURVE",
"174 161 CURVE SMOOTH",
"174 161 LINE SMOOTH"
);
}
);
width = 978;
}
);
note = three;
unicode = 0033;
},
{
glyphname = four;
layers = (
{
layerId = "D54EB2A3-8A7B-4735-A983-926C0FC7353D";
paths = (
{
closed = 1;
nodes = (
"639 0 LINE",
"639 376 LINE",
"15 376 LINE",
"15 433 LINE",
"710 1449 LINE",
"803 1449 LINE",
"803 518 LINE",
"1011 518 LINE",
"1003 376 LINE",
"803 376 LINE",
"803 0 LINE",
"639 0 LINE"
);
},
{
closed = 1;
nodes = (
"92 516 LINE",
"639 516 LINE",
"639 1340 LINE",
"92 516 LINE"
);
}
);
width = 1048;
}
);
note = four;
unicode = 0034;
},
{
glyphname = five;
layers = (
{
layerId = "D54EB2A3-8A7B-4735-A983-926C0FC7353D";
paths = (
{
closed = 1;
nodes = (
"344.667 -14 OFFCURVE",
"279.333 -0.333 OFFCURVE",
"226 27 CURVE SMOOTH",
"172.667 54.333 OFFCURVE",
"132.5 88.333 OFFCURVE",
"105.5 129 CURVE SMOOTH",
"78.5 169.667 OFFCURVE",
"65 210 OFFCURVE",
"65 250 CURVE",
"67 250 LINE",
"67 212.667 OFFCURVE",
"78.667 176.5 OFFCURVE",
"102 141.5 CURVE SMOOTH",
"125.333 106.5 OFFCURVE",
"158.833 77.833 OFFCURVE",
"202.5 55.5 CURVE SMOOTH",
"246.167 33.167 OFFCURVE",
"298 22 OFFCURVE",
"358 22 CURVE SMOOTH",
"417.333 22 OFFCURVE",
"471.667 36.5 OFFCURVE",
"521 65.5 CURVE SMOOTH",
"570.333 94.5 OFFCURVE",
"609.833 137.667 OFFCURVE",
"639.5 195 CURVE SMOOTH",
"669.167 252.333 OFFCURVE",
"684 323 OFFCURVE",
"684 407 CURVE SMOOTH",
"684 487.667 OFFCURVE",
"668.667 556.5 OFFCURVE",
"638 613.5 CURVE SMOOTH",
"607.333 670.5 OFFCURVE",
"567.167 714 OFFCURVE",
"517.5 744 CURVE SMOOTH",
"467.833 774 OFFCURVE",
"413.667 789 OFFCURVE",
"355 789 CURVE SMOOTH",
"297.667 789 OFFCURVE",
"248.667 777.833 OFFCURVE",
"208 755.5 CURVE SMOOTH",
"167.333 733.167 OFFCURVE",
"136.667 704.667 OFFCURVE",
"116 670 CURVE",
"112 670 LINE",
"251 1444 LINE",
"832 1444 LINE",
"824 1284 LINE",
"241 1284 LINE",
"117 680 LINE",
"117 680 LINE",
"132.333 713.333 OFFCURVE",
"156.667 745.333 OFFCURVE",
"190 776 CURVE SMOOTH",
"223.333 806.667 OFFCURVE",
"265.333 831.833 OFFCURVE",
"316 851.5 CURVE SMOOTH",
"366.667 871.167 OFFCURVE",
"425.333 881 OFFCURVE",
"492 881 CURVE SMOOTH",
"561.333 881 OFFCURVE",
"625.333 862.833 OFFCURVE",
"684 826.5 CURVE SMOOTH",
"742.667 790.167 OFFCURVE",
"790 739.333 OFFCURVE",
"826 674 CURVE SMOOTH",
"862 608.667 OFFCURVE",
"880 532.333 OFFCURVE",
"880 445 CURVE SMOOTH",
"880 351.667 OFFCURVE",
"857.5 270.667 OFFCURVE",
"812.5 202 CURVE SMOOTH",
"767.5 133.333 OFFCURVE",
"710 80.167 OFFCURVE",
"640 42.5 CURVE SMOOTH",
"570 4.833 OFFCURVE",
"497.333 -14 OFFCURVE",
"422 -14 CURVE SMOOTH",
"422 -14 LINE SMOOTH"
);
},
{
closed = 1;
nodes = (
"130.667 161 OFFCURVE",
"110.167 169.167 OFFCURVE",
"92.5 185.5 CURVE SMOOTH",
"74.833 201.833 OFFCURVE",
"66 223.333 OFFCURVE",
"66 250 CURVE",
"65 250 LINE",
"65 276.667 OFFCURVE",
"74.167 298.833 OFFCURVE",
"92.5 316.5 CURVE SMOOTH",
"110.833 334.167 OFFCURVE",
"131.667 343 OFFCURVE",
"155 343 CURVE SMOOTH",
"181 343 OFFCURVE",
"202.833 334.333 OFFCURVE",
"220.5 317 CURVE SMOOTH",
"238.167 299.667 OFFCURVE",
"247 278.667 OFFCURVE",
"247 254 CURVE SMOOTH",
"247 226 OFFCURVE",
"237.833 203.5 OFFCURVE",
"219.5 186.5 CURVE SMOOTH",
"201.167 169.5 OFFCURVE",
"179.333 161 OFFCURVE",
"154 161 CURVE SMOOTH",
"154 161 LINE SMOOTH"
);
}
);
width = 965;
}
);
note = five;
unicode = 0035;
},
{
glyphname = six;
layers = (
{
layerId = "D54EB2A3-8A7B-4735-A983-926C0FC7353D";
paths = (
{
closed = 1;
nodes = (
"483 -14 OFFCURVE",
"401 9.167 OFFCURVE",
"327 55.5 CURVE SMOOTH",
"253 101.833 OFFCURVE",
"194.167 169.5 OFFCURVE",
"150.5 258.5 CURVE SMOOTH",
"106.833 347.5 OFFCURVE",
"85 455.667 OFFCURVE",
"85 583 CURVE SMOOTH",
"85 712.333 OFFCURVE",
"106.833 830.333 OFFCURVE",
"150.5 937 CURVE SMOOTH",
"194.167 1043.667 OFFCURVE",
"256 1135.667 OFFCURVE",
"336 1213 CURVE SMOOTH",
"416 1290.333 OFFCURVE",
"510.333 1349.667 OFFCURVE",
"619 1391 CURVE SMOOTH",
"727.667 1432.333 OFFCURVE",
"847 1452.333 OFFCURVE",
"977 1451 CURVE",
"977 1450 LINE",
"816.333 1432.667 OFFCURVE",
"684.667 1383.333 OFFCURVE",
"582 1302 CURVE SMOOTH",
"479.333 1220.667 OFFCURVE",
"403.667 1111.667 OFFCURVE",
"355 975 CURVE SMOOTH",
"306.333 838.333 OFFCURVE",
"282 678 OFFCURVE",
"282 494 CURVE",
"282 494 LINE",
"283 494 LINE",
"283 381.333 OFFCURVE",
"295.167 287.667 OFFCURVE",
"319.5 213 CURVE SMOOTH",
"343.833 138.333 OFFCURVE",
"377.833 82.333 OFFCURVE",
"421.5 45 CURVE SMOOTH",
"465.167 7.667 OFFCURVE",
"515.667 -11 OFFCURVE",
"573 -11 CURVE SMOOTH",
"627 -11 OFFCURVE",
"674 6.667 OFFCURVE",
"714 42 CURVE SMOOTH",
"754 77.333 OFFCURVE",
"785 125.667 OFFCURVE",
"807 187 CURVE SMOOTH",
"829 248.333 OFFCURVE",
"840 318 OFFCURVE",
"840 396 CURVE SMOOTH",
"840 516.667 OFFCURVE",
"814.167 610.833 OFFCURVE",
"762.5 678.5 CURVE SMOOTH",
"710.833 746.167 OFFCURVE",
"641.667 780 OFFCURVE",
"555 780 CURVE SMOOTH",
"476.333 780 OFFCURVE",
"411.333 754.167 OFFCURVE",
"360 702.5 CURVE SMOOTH",
"308.667 650.833 OFFCURVE",
"283 581.333 OFFCURVE",
"283 494 CURVE",
"282 494 LINE",
"282 566 OFFCURVE",
"296.833 629.333 OFFCURVE",
"326.5 684 CURVE SMOOTH",
"356.167 738.667 OFFCURVE",
"398.333 781.333 OFFCURVE",
"453 812 CURVE SMOOTH",
"507.667 842.667 OFFCURVE",
"572.333 858 OFFCURVE",
"647 858 CURVE SMOOTH",
"723 858 OFFCURVE",
"790.333 841.167 OFFCURVE",
"849 807.5 CURVE SMOOTH",
"907.667 773.833 OFFCURVE",
"953.833 726.5 OFFCURVE",
"987.5 665.5 CURVE SMOOTH",
"1021.167 604.5 OFFCURVE",
"1038 533 OFFCURVE",
"1038 451 CURVE SMOOTH",
"1038 372.333 OFFCURVE",
"1023.833 303.833 OFFCURVE",
"995.5 245.5 CURVE SMOOTH",
"967.167 187.167 OFFCURVE",
"930 138.833 OFFCURVE",
"884 100.5 CURVE SMOOTH",
"838 62.167 OFFCURVE",
"787.833 33.5 OFFCURVE",
"733.5 14.5 CURVE SMOOTH",
"679.167 -4.5 OFFCURVE",
"625.667 -14 OFFCURVE",
"573 -14 CURVE SMOOTH",
"573 -14 LINE SMOOTH"
);
}
);
width = 1128;
}
);
note = six;
unicode = 0036;
},
{
glyphname = seven;
layers = (
{
layerId = "D54EB2A3-8A7B-4735-A983-926C0FC7353D";
paths = (
{
closed = 1;
nodes = (
"194 0 LINE",
"194 1 LINE",
"264.667 175.667 OFFCURVE",
"335.833 337.5 OFFCURVE",
"407.5 486.5 CURVE SMOOTH",
"479.167 635.5 OFFCURVE",
"552.5 775.667 OFFCURVE",
"627.5 907 CURVE SMOOTH",
"702.5 1038.333 OFFCURVE",
"780.333 1164.667 OFFCURVE",
"861 1286 CURVE",
"861 1284 LINE",
"54 1284 LINE",
"62 1444 LINE",
"863 1444 LINE",
"863 1284 LINE",
"805.667 1167.333 OFFCURVE",
"750.167 1041.333 OFFCURVE",
"696.5 906 CURVE SMOOTH",
"642.833 770.667 OFFCURVE",
"591.333 627.333 OFFCURVE",
"542 476 CURVE SMOOTH",
"492.667 324.667 OFFCURVE",
"446 166 OFFCURVE",
"402 0 CURVE",
"194 0 LINE"
);
}
);
width = 928;
}
);
note = seven;
unicode = 0037;
},
{
glyphname = eight;
layers = (
{
layerId = "D54EB2A3-8A7B-4735-A983-926C0FC7353D";
paths = (
{
closed = 1;
nodes = (
"465.667 -14 OFFCURVE",
"387 -2.5 OFFCURVE",
"315 20.5 CURVE SMOOTH",
"243 43.5 OFFCURVE",
"185.167 79.833 OFFCURVE",
"141.5 129.5 CURVE SMOOTH",
"97.833 179.167 OFFCURVE",
"75.667 244.333 OFFCURVE",
"75 325 CURVE SMOOTH",
"74.333 395.667 OFFCURVE",
"90.5 456.833 OFFCURVE",
"123.5 508.5 CURVE SMOOTH",
"156.5 560.167 OFFCURVE",
"201.167 603.333 OFFCURVE",
"257.5 638 CURVE SMOOTH",
"313.833 672.667 OFFCURVE",
"376.667 699.667 OFFCURVE",
"446 719 CURVE",
"447 718 LINE",
"378.333 683.333 OFFCURVE",
"325.667 635 OFFCURVE",
"289 573 CURVE SMOOTH",
"252.333 511 OFFCURVE",
"234.333 436.333 OFFCURVE",
"235 349 CURVE SMOOTH",
"235.667 280.333 OFFCURVE",
"249.5 218.833 OFFCURVE",
"276.5 164.5 CURVE SMOOTH",
"303.5 110.167 OFFCURVE",
"340.667 67.333 OFFCURVE",
"388 36 CURVE SMOOTH",
"435.333 4.667 OFFCURVE",
"489.667 -11 OFFCURVE",
"551 -11 CURVE SMOOTH",
"646.333 -11 OFFCURVE",
"722.167 14.333 OFFCURVE",
"778.5 65 CURVE SMOOTH",
"834.833 115.667 OFFCURVE",
"863 184.333 OFFCURVE",
"863 271 CURVE SMOOTH",
"863 322.333 OFFCURVE",
"853.5 368.333 OFFCURVE",
"834.5 409 CURVE SMOOTH",
"815.5 449.667 OFFCURVE",
"783.833 489.167 OFFCURVE",
"739.5 527.5 CURVE SMOOTH",
"695.167 565.833 OFFCURVE",
"635 607 OFFCURVE",
"559 651 CURVE SMOOTH",
"411 737 LINE SMOOTH",
"352.333 771 OFFCURVE",
"301.667 806.333 OFFCURVE",
"259 843 CURVE SMOOTH",
"216.333 879.667 OFFCURVE",
"183.333 920.167 OFFCURVE",
"160 964.5 CURVE SMOOTH",
"136.667 1008.833 OFFCURVE",
"125 1059.667 OFFCURVE",
"125 1117 CURVE SMOOTH",
"125 1193.667 OFFCURVE",
"143.667 1257.167 OFFCURVE",
"181 1307.5 CURVE SMOOTH",
"218.333 1357.833 OFFCURVE",
"269 1395.5 OFFCURVE",
"333 1420.5 CURVE SMOOTH",
"397 1445.5 OFFCURVE",
"469 1458 OFFCURVE",
"549 1458 CURVE SMOOTH",
"676.333 1458 OFFCURVE",
"778.833 1429.833 OFFCURVE",
"856.5 1373.5 CURVE SMOOTH",
"934.167 1317.167 OFFCURVE",
"973 1243.667 OFFCURVE",
"973 1153 CURVE SMOOTH",
"973 1098.333 OFFCURVE",
"958.5 1049 OFFCURVE",
"929.5 1005 CURVE SMOOTH",
"900.5 961 OFFCURVE",
"860.667 923.167 OFFCURVE",
"810 891.5 CURVE SMOOTH",
"759.333 859.833 OFFCURVE",
"701.333 834.667 OFFCURVE",
"636 816 CURVE",
"635 817 LINE",
"691.667 846.333 OFFCURVE",
"735.5 889.5 OFFCURVE",
"766.5 946.5 CURVE SMOOTH",
"797.5 1003.5 OFFCURVE",
"813 1067.333 OFFCURVE",
"813 1138 CURVE SMOOTH",
"813 1196 OFFCURVE",
"803 1249 OFFCURVE",
"783 1297 CURVE SMOOTH",
"763 1345 OFFCURVE",
"733.5 1383.333 OFFCURVE",
"694.5 1412 CURVE SMOOTH",
"655.5 1440.667 OFFCURVE",
"607 1455 OFFCURVE",
"549 1455 CURVE SMOOTH",
"466.333 1455 OFFCURVE",
"401.667 1432.333 OFFCURVE",
"355 1387 CURVE SMOOTH",
"308.333 1341.667 OFFCURVE",
"285 1283.333 OFFCURVE",
"285 1212 CURVE SMOOTH",
"285 1142.667 OFFCURVE",
"304.167 1083.333 OFFCURVE",
"342.5 1034 CURVE SMOOTH",
"380.833 984.667 OFFCURVE",
"443.333 934.667 OFFCURVE",
"530 884 CURVE SMOOTH",
"678 798 LINE SMOOTH",
"757.333 752.667 OFFCURVE",
"822.333 708.833 OFFCURVE",
"873 666.5 CURVE SMOOTH",
"923.667 624.167 OFFCURVE",
"961.333 579.167 OFFCURVE",
"986 531.5 CURVE SMOOTH",
"1010.667 483.833 OFFCURVE",
"1023 429 OFFCURVE",
"1023 367 CURVE SMOOTH",
"1023 282.333 OFFCURVE",
"1000 211.667 OFFCURVE",
"954 155 CURVE SMOOTH",
"908 98.333 OFFCURVE",
"849 56 OFFCURVE",
"777 28 CURVE SMOOTH",
"705 0 OFFCURVE",
"629.667 -14 OFFCURVE",
"551 -14 CURVE SMOOTH",
"551 -14 LINE SMOOTH"
);
}
);
width = 1098;
}
);
note = eight;
unicode = 0038;
},
{
glyphname = nine;
layers = (
{
layerId = "D54EB2A3-8A7B-4735-A983-926C0FC7353D";
paths = (
{
closed = 1;
nodes = (
"151 -7 LINE",
"151 -6 LINE",
"312.333 11.333 OFFCURVE",
"444.167 60.667 OFFCURVE",
"546.5 142 CURVE SMOOTH",
"648.833 223.333 OFFCURVE",
"724.333 332.333 OFFCURVE",
"773 469 CURVE SMOOTH",
"821.667 605.667 OFFCURVE",
"846 766 OFFCURVE",
"846 950 CURVE",
"846 950 LINE",
"845 950 LINE",
"845 1062.667 OFFCURVE",
"832.833 1156.333 OFFCURVE",
"808.5 1231 CURVE SMOOTH",
"784.167 1305.667 OFFCURVE",
"750.167 1361.667 OFFCURVE",
"706.5 1399 CURVE SMOOTH",
"662.833 1436.333 OFFCURVE",
"612.333 1455 OFFCURVE",
"555 1455 CURVE SMOOTH",
"501 1455 OFFCURVE",
"454 1437.333 OFFCURVE",
"414 1402 CURVE SMOOTH",
"374 1366.667 OFFCURVE",
"343 1318.333 OFFCURVE",
"321 1257 CURVE SMOOTH",
"299 1195.667 OFFCURVE",
"288 1126 OFFCURVE",
"288 1048 CURVE SMOOTH",
"288 927.333 OFFCURVE",
"313.833 833.167 OFFCURVE",
"365.5 765.5 CURVE SMOOTH",
"417.167 697.833 OFFCURVE",
"486.333 664 OFFCURVE",
"573 664 CURVE SMOOTH",
"652.333 664 OFFCURVE",
"717.5 689.833 OFFCURVE",
"768.5 741.5 CURVE SMOOTH",
"819.5 793.167 OFFCURVE",
"845 862.667 OFFCURVE",
"845 950 CURVE",
"846 950 LINE",
"846 878 OFFCURVE",
"831.167 814.667 OFFCURVE",
"801.5 760 CURVE SMOOTH",
"771.833 705.333 OFFCURVE",
"729.833 662.667 OFFCURVE",
"675.5 632 CURVE SMOOTH",
"621.167 601.333 OFFCURVE",
"556.333 586 OFFCURVE",
"481 586 CURVE SMOOTH",
"405 586 OFFCURVE",
"337.667 602.833 OFFCURVE",
"279 636.5 CURVE SMOOTH",
"220.333 670.167 OFFCURVE",
"174.167 717.667 OFFCURVE",
"140.5 779 CURVE SMOOTH",
"106.833 840.333 OFFCURVE",
"90 911.667 OFFCURVE",
"90 993 CURVE SMOOTH",
"90 1071.667 OFFCURVE",
"104.167 1140.167 OFFCURVE",
"132.5 1198.5 CURVE SMOOTH",
"160.833 1256.833 OFFCURVE",
"198 1305.167 OFFCURVE",
"244 1343.5 CURVE SMOOTH",
"290 1381.833 OFFCURVE",
"340.167 1410.5 OFFCURVE",
"394.5 1429.5 CURVE SMOOTH",
"448.833 1448.5 OFFCURVE",
"502.333 1458 OFFCURVE",
"555 1458 CURVE SMOOTH",
"645.667 1458 OFFCURVE",
"727.833 1434.833 OFFCURVE",
"801.5 1388.5 CURVE SMOOTH",
"875.167 1342.167 OFFCURVE",
"933.833 1274.667 OFFCURVE",
"977.5 1186 CURVE SMOOTH",
"1021.167 1097.333 OFFCURVE",
"1043 989 OFFCURVE",
"1043 861 CURVE SMOOTH",
"1043 731.667 OFFCURVE",
"1021.167 613.667 OFFCURVE",
"977.5 507 CURVE SMOOTH",
"933.833 400.333 OFFCURVE",
"872 308.333 OFFCURVE",
"792 231 CURVE SMOOTH",
"712 153.667 OFFCURVE",
"617.667 94.333 OFFCURVE",
"509 53 CURVE SMOOTH",
"400.333 11.667 OFFCURVE",
"281 -8.333 OFFCURVE",
"151 -7 CURVE SMOOTH"
);
}
);
width = 1128;
}
);
note = nine;
unicode = 0039;
},
{
glyphname = "zero-deva";
layers = (
{
layerId = "D54EB2A3-8A7B-4735-A983-926C0FC7353D";
paths = (
{
closed = 1;
nodes = (
"438.667 278 OFFCURVE",
"364.833 295.833 OFFCURVE",
"296.5 331.5 CURVE SMOOTH",
"228.167 367.167 OFFCURVE",
"173.333 418.5 OFFCURVE",
"132 485.5 CURVE SMOOTH",
"90.667 552.5 OFFCURVE",
"70 632.667 OFFCURVE",
"70 726 CURVE SMOOTH",
"70 820 OFFCURVE",
"91 899.833 OFFCURVE",
"133 965.5 CURVE SMOOTH",
"175 1031.167 OFFCURVE",
"229.833 1081 OFFCURVE",
"297.5 1115 CURVE SMOOTH",
"365.167 1149 OFFCURVE",
"437.333 1166 OFFCURVE",
"514 1166 CURVE SMOOTH",
"594 1166 OFFCURVE",
"668 1148.167 OFFCURVE",
"736 1112.5 CURVE SMOOTH",
"804 1076.833 OFFCURVE",
"858.667 1025.5 OFFCURVE",
"900 958.5 CURVE SMOOTH",
"941.333 891.5 OFFCURVE",
"962 811.333 OFFCURVE",
"962 718 CURVE SMOOTH",
"962 624 OFFCURVE",
"941 544.333 OFFCURVE",
"899 479 CURVE SMOOTH",
"857 413.667 OFFCURVE",
"802.333 363.833 OFFCURVE",
"735 329.5 CURVE SMOOTH",
"667.667 295.167 OFFCURVE",
"595.333 278 OFFCURVE",
"518 278 CURVE SMOOTH",
"518 278 LINE SMOOTH"
);
},
{
closed = 1;
nodes = (
"600 280 OFFCURVE",
"655.333 315.667 OFFCURVE",
"698 387 CURVE SMOOTH",
"740.667 458.333 OFFCURVE",
"762 559.333 OFFCURVE",
"762 690 CURVE SMOOTH",
"762 770 OFFCURVE",
"752.5 846.167 OFFCURVE",
"733.5 918.5 CURVE SMOOTH",
"714.5 990.833 OFFCURVE",
"685.667 1049.833 OFFCURVE",
"647 1095.5 CURVE SMOOTH",
"608.333 1141.167 OFFCURVE",
"559.333 1164 OFFCURVE",
"500 1164 CURVE SMOOTH",
"432 1164 OFFCURVE",
"376.667 1128.333 OFFCURVE",
"334 1057 CURVE SMOOTH",
"291.333 985.667 OFFCURVE",
"270 884.667 OFFCURVE",
"270 754 CURVE SMOOTH",
"270 674.667 OFFCURVE",
"279.5 598.667 OFFCURVE",
"298.5 526 CURVE SMOOTH",
"317.5 453.333 OFFCURVE",
"346.333 394.167 OFFCURVE",
"385 348.5 CURVE SMOOTH",
"423.667 302.833 OFFCURVE",
"472.667 280 OFFCURVE",
"532 280 CURVE",
"532 280 LINE"
);
}
);
width = 1032;
}
);
note = "zero-deva";
unicode = 0966;
},
{
glyphname = "one-deva";
layers = (
{
layerId = "D54EB2A3-8A7B-4735-A983-926C0FC7353D";
paths = (
{
closed = 1;
nodes = (
"437 74 OFFCURVE",
"379.5 159.667 OFFCURVE",
"316.5 243 CURVE SMOOTH",
"253.5 326.333 OFFCURVE",
"187.333 407 OFFCURVE",
"118 485 CURVE",
"118 486 LINE",
"186.667 504 OFFCURVE",
"253.5 531.167 OFFCURVE",
"318.5 567.5 CURVE SMOOTH",
"383.5 603.833 OFFCURVE",
"442.167 649.667 OFFCURVE",
"494.5 705 CURVE SMOOTH",
"546.833 760.333 OFFCURVE",
"588.333 825 OFFCURVE",
"619 899 CURVE SMOOTH",
"649.667 973 OFFCURVE",
"665 1056 OFFCURVE",
"665 1148 CURVE",
"666 1148 LINE",
"666 1086 OFFCURVE",
"656.667 1028.833 OFFCURVE",
"638 976.5 CURVE SMOOTH",
"619.333 924.167 OFFCURVE",
"590.5 882.167 OFFCURVE",
"551.5 850.5 CURVE SMOOTH",
"512.5 818.833 OFFCURVE",
"463 803 OFFCURVE",
"403 803 CURVE SMOOTH",
"338.333 803 OFFCURVE",
"282.167 817 OFFCURVE",
"234.5 845 CURVE SMOOTH",
"186.833 873 OFFCURVE",
"149.833 911.5 OFFCURVE",
"123.5 960.5 CURVE SMOOTH",
"97.167 1009.5 OFFCURVE",
"84 1066 OFFCURVE",
"84 1130 CURVE SMOOTH",
"84 1193.333 OFFCURVE",
"99.167 1249.667 OFFCURVE",
"129.5 1299 CURVE SMOOTH",
"159.833 1348.333 OFFCURVE",
"203.5 1387.167 OFFCURVE",
"260.5 1415.5 CURVE SMOOTH",
"317.5 1443.833 OFFCURVE",
"385.333 1458 OFFCURVE",
"464 1458 CURVE SMOOTH",
"537.333 1458 OFFCURVE",
"601.833 1442.833 OFFCURVE",
"657.5 1412.5 CURVE SMOOTH",
"713.167 1382.167 OFFCURVE",
"756.5 1337 OFFCURVE",
"787.5 1277 CURVE SMOOTH",
"818.5 1217 OFFCURVE",
"834 1143 OFFCURVE",
"834 1055 CURVE SMOOTH",
"834 961 OFFCURVE",
"816 878.667 OFFCURVE",
"780 808 CURVE SMOOTH",
"744 737.333 OFFCURVE",
"693.833 678.167 OFFCURVE",
"629.5 630.5 CURVE SMOOTH",
"565.167 582.833 OFFCURVE",
"489.5 546.833 OFFCURVE",
"402.5 522.5 CURVE SMOOTH",
"315.5 498.167 OFFCURVE",
"221 485.667 OFFCURVE",
"119 485 CURVE",
"119 486 LINE",
"228.333 407.333 OFFCURVE",
"334.833 326.5 OFFCURVE",
"438.5 243.5 CURVE SMOOTH",
"542.167 160.5 OFFCURVE",
"640.333 75 OFFCURVE",
"733 -13 CURVE",
"733 -14 LINE",
"489 -14 LINE",
"489 -14 LINE"
);
},
{
closed = 1;
nodes = (
"518 858 OFFCURVE",
"564.833 883.5 OFFCURVE",
"604.5 934.5 CURVE SMOOTH",
"644.167 985.5 OFFCURVE",
"664 1056.667 OFFCURVE",
"664 1148 CURVE SMOOTH",
"664 1198.667 OFFCURVE",
"656.333 1247.5 OFFCURVE",
"641 1294.5 CURVE SMOOTH",
"625.667 1341.5 OFFCURVE",
"603.167 1380 OFFCURVE",
"573.5 1410 CURVE SMOOTH",
"543.833 1440 OFFCURVE",
"507.333 1455 OFFCURVE",
"464 1455 CURVE SMOOTH",
"420.667 1455 OFFCURVE",
"384.167 1440.833 OFFCURVE",
"354.5 1412.5 CURVE SMOOTH",
"324.833 1384.167 OFFCURVE",
"302.333 1347.333 OFFCURVE",
"287 1302 CURVE SMOOTH",
"271.667 1256.667 OFFCURVE",
"264 1208.667 OFFCURVE",
"264 1158 CURVE SMOOTH",
"264 1065.333 OFFCURVE",
"281.167 992.167 OFFCURVE",
"315.5 938.5 CURVE SMOOTH",
"349.833 884.833 OFFCURVE",
"399.333 858 OFFCURVE",
"464 858 CURVE",
"464 858 LINE"
);
}
);
width = 924;
}
);
note = "one-deva";
unicode = 0967;
},
{
glyphname = "two-deva";
layers = (
{
layerId = "D54EB2A3-8A7B-4735-A983-926C0FC7353D";
paths = (
{
closed = 1;
nodes = (
"379.667 505 OFFCURVE",
"320.667 514.333 OFFCURVE",
"264 533 CURVE SMOOTH",
"207.333 551.667 OFFCURVE",
"160.833 578.333 OFFCURVE",
"124.5 613 CURVE SMOOTH",
"88.167 647.667 OFFCURVE",
"70 689.333 OFFCURVE",
"70 738 CURVE",
"72 738 LINE",
"72 697.333 OFFCURVE",
"85.5 661.833 OFFCURVE",
"112.5 631.5 CURVE SMOOTH",
"139.5 601.167 OFFCURVE",
"174.167 577.5 OFFCURVE",
"216.5 560.5 CURVE SMOOTH",
"258.833 543.5 OFFCURVE",
"303.333 535 OFFCURVE",
"350 535 CURVE SMOOTH",
"411.333 535 OFFCURVE",
"469.167 550.167 OFFCURVE",
"523.5 580.5 CURVE SMOOTH",
"577.833 610.833 OFFCURVE",
"622 662.5 OFFCURVE",
"656 735.5 CURVE SMOOTH",
"690 808.5 OFFCURVE",
"707 909 OFFCURVE",
"707 1037 CURVE SMOOTH",
"707 1084.333 OFFCURVE",
"703.5 1132.5 OFFCURVE",
"696.5 1181.5 CURVE SMOOTH",
"689.5 1230.5 OFFCURVE",
"677.5 1275.667 OFFCURVE",
"660.5 1317 CURVE SMOOTH",
"643.5 1358.333 OFFCURVE",
"620.5 1391.667 OFFCURVE",
"591.5 1417 CURVE SMOOTH",
"562.5 1442.333 OFFCURVE",
"526.333 1455 OFFCURVE",
"483 1455 CURVE SMOOTH",
"431.667 1455 OFFCURVE",
"388.667 1439 OFFCURVE",
"354 1407 CURVE SMOOTH",
"319.333 1375 OFFCURVE",
"293.333 1334.5 OFFCURVE",
"276 1285.5 CURVE SMOOTH",
"258.667 1236.5 OFFCURVE",
"250 1186.333 OFFCURVE",
"250 1135 CURVE",
"70 1144 LINE",
"75.333 1206 OFFCURVE",
"95.667 1260.5 OFFCURVE",
"131 1307.5 CURVE SMOOTH",
"166.333 1354.5 OFFCURVE",
"214.167 1391.333 OFFCURVE",
"274.5 1418 CURVE SMOOTH",
"334.833 1444.667 OFFCURVE",
"404.333 1458 OFFCURVE",
"483 1458 CURVE SMOOTH",
"565.667 1458 OFFCURVE",
"638.5 1439.333 OFFCURVE",
"701.5 1402 CURVE SMOOTH",
"764.5 1364.667 OFFCURVE",
"813.833 1311.167 OFFCURVE",
"849.5 1241.5 CURVE SMOOTH",
"885.167 1171.833 OFFCURVE",
"903 1087.667 OFFCURVE",
"903 989 CURVE SMOOTH",
"903 901.667 OFFCURVE",
"889.5 827.333 OFFCURVE",
"862.5 766 CURVE SMOOTH",
"835.5 704.667 OFFCURVE",
"799.5 654.833 OFFCURVE",
"754.5 616.5 CURVE SMOOTH",
"709.5 578.167 OFFCURVE",
"659.833 550 OFFCURVE",
"605.5 532 CURVE SMOOTH",
"551.167 514 OFFCURVE",
"496.333 505 OFFCURVE",
"441 505 CURVE SMOOTH",
"441 505 LINE SMOOTH"
);
},
{
closed = 1;
nodes = (
"476.333 79.333 OFFCURVE",
"433.667 171 OFFCURVE",
"397 261 CURVE SMOOTH",
"360.333 351 OFFCURVE",
"328 438.667 OFFCURVE",
"300 524 CURVE",
"302 523 LINE",
"344 465.667 OFFCURVE",
"388.5 407.5 OFFCURVE",
"435.5 348.5 CURVE SMOOTH",
"482.5 289.5 OFFCURVE",
"532.667 229.833 OFFCURVE",
"586 169.5 CURVE SMOOTH",
"639.333 109.167 OFFCURVE",
"695.667 48.333 OFFCURVE",
"755 -13 CURVE",
"755 -14 LINE",
"525 -14 LINE",
"525 -14 LINE"
);
},
{
closed = 1;
nodes = (
"160.667 614 OFFCURVE",
"132 626 OFFCURVE",
"108 650 CURVE SMOOTH",
"84 674 OFFCURVE",
"72 703.333 OFFCURVE",
"72 738 CURVE",
"70 738 LINE",
"70 773.333 OFFCURVE",
"82 802.833 OFFCURVE",
"106 826.5 CURVE SMOOTH",
"130 850.167 OFFCURVE",
"159.333 862 OFFCURVE",
"194 862 CURVE SMOOTH",
"229.333 862 OFFCURVE",
"258.833 850.167 OFFCURVE",
"282.5 826.5 CURVE SMOOTH",
"306.167 802.833 OFFCURVE",
"318 773.333 OFFCURVE",
"318 738 CURVE SMOOTH",
"318 703.333 OFFCURVE",
"305.833 674 OFFCURVE",
"281.5 650 CURVE SMOOTH",
"257.167 626 OFFCURVE",
"228 614 OFFCURVE",
"194 614 CURVE SMOOTH",
"194 614 LINE SMOOTH"
);
}
);
width = 983;
}
);
note = "two-deva";
unicode = 0968;
},
{
glyphname = "three-deva";
layers = (
{
layerId = "D54EB2A3-8A7B-4735-A983-926C0FC7353D";
paths = (
{
closed = 1;
nodes = (
"387.333 224 OFFCURVE",
"327 233.333 OFFCURVE",
"269 252 CURVE SMOOTH",
"211 270.667 OFFCURVE",
"163.333 297.333 OFFCURVE",
"126 332 CURVE SMOOTH",
"88.667 366.667 OFFCURVE",
"70 408.333 OFFCURVE",
"70 457 CURVE",
"72 457 LINE",
"72 416.333 OFFCURVE",
"85.833 380.833 OFFCURVE",
"113.5 350.5 CURVE SMOOTH",
"141.167 320.167 OFFCURVE",
"177 296.5 OFFCURVE",
"221 279.5 CURVE SMOOTH",
"265 262.5 OFFCURVE",
"311 254 OFFCURVE",
"359 254 CURVE SMOOTH",
"460.333 254 OFFCURVE",
"539.833 277.333 OFFCURVE",
"597.5 324 CURVE SMOOTH",
"655.167 370.667 OFFCURVE",
"684 437.333 OFFCURVE",
"684 524 CURVE SMOOTH",
"684 599.333 OFFCURVE",
"663.167 658.167 OFFCURVE",
"621.5 700.5 CURVE SMOOTH",
"579.833 742.833 OFFCURVE",
"524.167 774.333 OFFCURVE",
"454.5 795 CURVE SMOOTH",
"384.833 815.667 OFFCURVE",
"307.333 831 OFFCURVE",
"222 841 CURVE",
"222 843 LINE",
"352.667 864.333 OFFCURVE",
"458 903.167 OFFCURVE",
"538 959.5 CURVE SMOOTH",
"618 1015.833 OFFCURVE",
"657.667 1098.333 OFFCURVE",
"657 1207 CURVE",
"657 1251 OFFCURVE",
"649.667 1291.833 OFFCURVE",
"635 1329.5 CURVE SMOOTH",
"620.333 1367.167 OFFCURVE",
"598.5 1397.5 OFFCURVE",
"569.5 1420.5 CURVE SMOOTH",
"540.5 1443.5 OFFCURVE",
"504 1455 OFFCURVE",
"460 1455 CURVE SMOOTH",
"416 1455 OFFCURVE",
"379.167 1439 OFFCURVE",
"349.5 1407 CURVE SMOOTH",
"319.833 1375 OFFCURVE",
"297.5 1334.5 OFFCURVE",
"282.5 1285.5 CURVE SMOOTH",
"267.5 1236.5 OFFCURVE",
"260 1186.333 OFFCURVE",
"260 1135 CURVE",
"80 1135 LINE",
"86.667 1205 OFFCURVE",
"106.333 1264 OFFCURVE",
"139 1312 CURVE SMOOTH",
"171.667 1360 OFFCURVE",
"215.333 1396.333 OFFCURVE",
"270 1421 CURVE SMOOTH",
"324.667 1445.667 OFFCURVE",
"388 1458 OFFCURVE",
"460 1458 CURVE SMOOTH",
"524 1458 OFFCURVE",
"584.333 1445.333 OFFCURVE",
"641 1420 CURVE SMOOTH",
"697.667 1394.667 OFFCURVE",
"743.833 1358 OFFCURVE",
"779.5 1310 CURVE SMOOTH",
"815.167 1262 OFFCURVE",
"833 1203.667 OFFCURVE",
"833 1135 CURVE SMOOTH",
"833 1071.667 OFFCURVE",
"817 1016.333 OFFCURVE",
"785 969 CURVE SMOOTH",
"753 921.667 OFFCURVE",
"709.167 884 OFFCURVE",
"653.5 856 CURVE SMOOTH",
"597.833 828 OFFCURVE",
"534.667 811 OFFCURVE",
"464 805 CURVE",
"464 805 LINE",
"531.333 809 OFFCURVE",
"596 801.667 OFFCURVE",
"658 783 CURVE SMOOTH",
"720 764.333 OFFCURVE",
"770.833 733.5 OFFCURVE",
"810.5 690.5 CURVE SMOOTH",
"850.167 647.5 OFFCURVE",
"870 590.667 OFFCURVE",
"870 520 CURVE SMOOTH",
"870 468 OFFCURVE",
"858.667 423.333 OFFCURVE",
"836 386 CURVE SMOOTH",
"813.333 348.667 OFFCURVE",
"782.333 318 OFFCURVE",
"743 294 CURVE SMOOTH",
"703.667 270 OFFCURVE",
"658.833 252.333 OFFCURVE",
"608.5 241 CURVE SMOOTH",
"558.167 229.667 OFFCURVE",
"505.333 224 OFFCURVE",
"450 224 CURVE SMOOTH",
"450 224 LINE SMOOTH"
);
},
{
closed = 1;
nodes = (
"325.333 31.333 OFFCURVE",
"309.833 76.5 OFFCURVE",
"295.5 121.5 CURVE SMOOTH",
"281.167 166.5 OFFCURVE",
"267.667 212 OFFCURVE",
"255 258 CURVE",
"257 257 LINE",
"299 213.667 OFFCURVE",
"345.333 169.5 OFFCURVE",
"396 124.5 CURVE SMOOTH",
"446.667 79.5 OFFCURVE",
"502 33.667 OFFCURVE",
"562 -13 CURVE",
"562 -14 LINE",
"342 -14 LINE",
"342 -14 LINE"
);
},
{
closed = 1;
nodes = (
"159.333 335 OFFCURVE",
"131.167 346.667 OFFCURVE",
"107.5 370 CURVE SMOOTH",
"83.833 393.333 OFFCURVE",
"72 422.333 OFFCURVE",
"72 457 CURVE",
"70 457 LINE",
"70 491.667 OFFCURVE",
"81.667 520.667 OFFCURVE",
"105 544 CURVE SMOOTH",
"128.333 567.333 OFFCURVE",
"157.333 579 OFFCURVE",
"192 579 CURVE SMOOTH",
"226.667 579 OFFCURVE",
"255.667 567.333 OFFCURVE",
"279 544 CURVE SMOOTH",
"302.333 520.667 OFFCURVE",
"314 491.667 OFFCURVE",
"314 457 CURVE SMOOTH",
"314 422.333 OFFCURVE",
"302 393.333 OFFCURVE",
"278 370 CURVE SMOOTH",
"254 346.667 OFFCURVE",
"225.333 335 OFFCURVE",
"192 335 CURVE SMOOTH",
"192 335 LINE SMOOTH"
);
}
);
width = 935;
}
);
note = "three-deva";
unicode = 0969;
},
{
glyphname = "four-deva";
layers = (
{
layerId = "D54EB2A3-8A7B-4735-A983-926C0FC7353D";
paths = (
{
closed = 1;
nodes = (
"461 0 OFFCURVE",
"397.833 13 OFFCURVE",
"341.5 39 CURVE SMOOTH",
"285.167 65 OFFCURVE",
"240.667 103.167 OFFCURVE",
"208 153.5 CURVE SMOOTH",
"175.333 203.833 OFFCURVE",
"159 266 OFFCURVE",
"159 340 CURVE SMOOTH",
"159 420 OFFCURVE",
"179.833 492.5 OFFCURVE",
"221.5 557.5 CURVE SMOOTH",
"263.167 622.5 OFFCURVE",
"324.333 678.333 OFFCURVE",
"405 725 CURVE SMOOTH",
"539 803 LINE SMOOTH",
"613 846.333 OFFCURVE",
"671.5 886.5 OFFCURVE",
"714.5 923.5 CURVE SMOOTH",
"757.5 960.5 OFFCURVE",
"788 998.5 OFFCURVE",
"806 1037.5 CURVE SMOOTH",
"824 1076.5 OFFCURVE",
"833 1120.667 OFFCURVE",
"833 1170 CURVE SMOOTH",
"833 1245.333 OFFCURVE",
"816 1307.167 OFFCURVE",
"782 1355.5 CURVE SMOOTH",
"748 1403.833 OFFCURVE",
"702.667 1432.667 OFFCURVE",
"646 1442 CURVE",
"646 1444 LINE",
"706.667 1444 OFFCURVE",
"763.333 1429.167 OFFCURVE",
"816 1399.5 CURVE SMOOTH",
"868.667 1369.833 OFFCURVE",
"911.333 1327.833 OFFCURVE",
"944 1273.5 CURVE SMOOTH",
"976.667 1219.167 OFFCURVE",
"993 1155 OFFCURVE",
"993 1081 CURVE SMOOTH",
"993 1023 OFFCURVE",
"981.333 970.667 OFFCURVE",
"958 924 CURVE SMOOTH",
"934.667 877.333 OFFCURVE",
"898.333 832.833 OFFCURVE",
"849 790.5 CURVE SMOOTH",
"799.667 748.167 OFFCURVE",
"736 704.667 OFFCURVE",
"658 660 CURVE SMOOTH",
"524 583 LINE SMOOTH",
"449.333 540.333 OFFCURVE",
"396.5 493.833 OFFCURVE",
"365.5 443.5 CURVE SMOOTH",
"334.5 393.167 OFFCURVE",
"319 334 OFFCURVE",
"319 266 CURVE SMOOTH",
"319 177.333 OFFCURVE",
"339.5 111.333 OFFCURVE",
"380.5 68 CURVE SMOOTH",
"421.5 24.667 OFFCURVE",
"469.667 3 OFFCURVE",
"525 3 CURVE SMOOTH",
"574.333 3 OFFCURVE",
"614.667 18 OFFCURVE",
"646 48 CURVE SMOOTH",
"677.333 78 OFFCURVE",
"700.667 117.333 OFFCURVE",
"716 166 CURVE SMOOTH",
"731.333 214.667 OFFCURVE",
"739 267 OFFCURVE",
"739 323 CURVE SMOOTH",
"739 394.333 OFFCURVE",
"727.5 457 OFFCURVE",
"704.5 511 CURVE SMOOTH",
"681.5 565 OFFCURVE",
"649 605.667 OFFCURVE",
"607 633 CURVE",
"608 634 LINE",
"664.667 616.667 OFFCURVE",
"714.833 593 OFFCURVE",
"758.5 563 CURVE SMOOTH",
"802.167 533 OFFCURVE",
"836.5 497 OFFCURVE",
"861.5 455 CURVE SMOOTH",
"886.5 413 OFFCURVE",
"899 364.667 OFFCURVE",
"899 310 CURVE SMOOTH",
"899 250 OFFCURVE",
"883.5 196.667 OFFCURVE",
"852.5 150 CURVE SMOOTH",
"821.5 103.333 OFFCURVE",
"778.5 66.667 OFFCURVE",
"723.5 40 CURVE SMOOTH",
"668.5 13.333 OFFCURVE",
"604.333 0 OFFCURVE",
"531 0 CURVE SMOOTH",
"531 0 LINE SMOOTH"
);
},
{
closed = 1;
nodes = (
"310.667 764.667 OFFCURVE",
"223.5 814 OFFCURVE",
"158.5 880 CURVE SMOOTH",
"93.5 946 OFFCURVE",
"62.333 1027.667 OFFCURVE",
"65 1125 CURVE SMOOTH",
"67 1191.667 OFFCURVE",
"83.5 1248.833 OFFCURVE",
"114.5 1296.5 CURVE SMOOTH",
"145.5 1344.167 OFFCURVE",
"187 1380.667 OFFCURVE",
"239 1406 CURVE SMOOTH",
"291 1431.333 OFFCURVE",
"348.667 1444 OFFCURVE",
"412 1444 CURVE",
"412 1442 LINE",
"357.333 1428 OFFCURVE",
"312.833 1390.833 OFFCURVE",
"278.5 1330.5 CURVE SMOOTH",
"244.167 1270.167 OFFCURVE",
"226.333 1193.667 OFFCURVE",
"225 1101 CURVE SMOOTH",
"224.333 1012.333 OFFCURVE",
"241 937.667 OFFCURVE",
"275 877 CURVE SMOOTH",
"309 816.333 OFFCURVE",
"357.667 768.333 OFFCURVE",
"421 733 CURVE",
"420 732 LINE",
"420 732 LINE"
);
}
);
width = 1058;
}
);
note = "four-deva";
unicode = 096A;
},
{
glyphname = "five-deva";
layers = (
{
layerId = "D54EB2A3-8A7B-4735-A983-926C0FC7353D";
paths = (
{
closed = 1;
nodes = (
"466.333 423 OFFCURVE",
"382.833 440.5 OFFCURVE",
"310.5 475.5 CURVE SMOOTH",
"238.167 510.5 OFFCURVE",
"181.667 562 OFFCURVE",
"141 630 CURVE SMOOTH",
"100.333 698 OFFCURVE",
"80 781.333 OFFCURVE",
"80 880 CURVE SMOOTH",
"80 983.333 OFFCURVE",
"103.333 1083.333 OFFCURVE",
"150 1180 CURVE SMOOTH",
"196.667 1276.667 OFFCURVE",
"266.333 1364.667 OFFCURVE",
"359 1444 CURVE",
"613 1444 LINE",
"613 1443 LINE",
"553 1393 OFFCURVE",
"497.333 1338 OFFCURVE",
"446 1278 CURVE SMOOTH",
"394.667 1218 OFFCURVE",
"353.5 1152.833 OFFCURVE",
"322.5 1082.5 CURVE SMOOTH",
"291.5 1012.167 OFFCURVE",
"276 935.667 OFFCURVE",
"276 853 CURVE SMOOTH",
"276 728.333 OFFCURVE",
"311.333 631.5 OFFCURVE",
"382 562.5 CURVE SMOOTH",
"452.667 493.5 OFFCURVE",
"542 459 OFFCURVE",
"650 459 CURVE SMOOTH",
"690 459 OFFCURVE",
"729.167 464.5 OFFCURVE",
"767.5 475.5 CURVE SMOOTH",
"805.833 486.5 OFFCURVE",
"840.333 503 OFFCURVE",
"871 525 CURVE SMOOTH",
"901.667 547 OFFCURVE",
"926.167 574.5 OFFCURVE",
"944.5 607.5 CURVE SMOOTH",
"962.833 640.5 OFFCURVE",
"972 679 OFFCURVE",
"972 723 CURVE",
"974 723 LINE",
"974 657.667 OFFCURVE",
"955.5 602.667 OFFCURVE",
"918.5 558 CURVE SMOOTH",
"881.5 513.333 OFFCURVE",
"831.833 479.667 OFFCURVE",
"769.5 457 CURVE SMOOTH",
"707.167 434.333 OFFCURVE",
"637.667 423 OFFCURVE",
"561 423 CURVE SMOOTH",
"561 423 LINE SMOOTH"
);
},
{
closed = 1;
nodes = (
"929.667 71.333 OFFCURVE",
"910.667 156.667 OFFCURVE",
"894 242 CURVE SMOOTH",
"877.333 327.333 OFFCURVE",
"862.333 413 OFFCURVE",
"849 499 CURVE",
"850 500 LINE",
"878 446 OFFCURVE",
"908.5 391 OFFCURVE",
"941.5 335 CURVE SMOOTH",
"974.5 279 OFFCURVE",
"1010.5 222 OFFCURVE",
"1049.5 164 CURVE SMOOTH",
"1088.5 106 OFFCURVE",
"1130.333 47 OFFCURVE",
"1175 -13 CURVE",
"1175 -14 LINE",
"951 -14 LINE",
"951 -14 LINE"
);
},
{
closed = 1;
nodes = (
"809.667 604 OFFCURVE",
"779.333 616.333 OFFCURVE",
"754 641 CURVE SMOOTH",
"728.667 665.667 OFFCURVE",
"716 696.333 OFFCURVE",
"716 733 CURVE SMOOTH",
"716 769.667 OFFCURVE",
"728.333 800.333 OFFCURVE",
"753 825 CURVE SMOOTH",
"777.667 849.667 OFFCURVE",
"808.333 862 OFFCURVE",
"845 862 CURVE SMOOTH",
"881.667 862 OFFCURVE",
"912.333 849.167 OFFCURVE",
"937 823.5 CURVE SMOOTH",
"961.667 797.833 OFFCURVE",
"974 764.333 OFFCURVE",
"974 723 CURVE",
"972 723 LINE",
"972 687.667 OFFCURVE",
"958.667 659 OFFCURVE",
"932 637 CURVE SMOOTH",
"905.333 615 OFFCURVE",
"876.333 604 OFFCURVE",
"845 604 CURVE SMOOTH",
"845 604 LINE SMOOTH"
);
}
);
width = 1085;
}
);
note = "five-deva";
unicode = 096B;
},
{
glyphname = "six-deva";
layers = (
{
layerId = "D54EB2A3-8A7B-4735-A983-926C0FC7353D";
paths = (
{
closed = 1;
nodes = (
"419.333 224 OFFCURVE",
"350.667 235.667 OFFCURVE",
"286 259 CURVE SMOOTH",
"221.333 282.333 OFFCURVE",
"168.833 318.333 OFFCURVE",
"128.5 367 CURVE SMOOTH",
"88.167 415.667 OFFCURVE",
"68 478 OFFCURVE",
"68 554 CURVE SMOOTH",
"68 618.667 OFFCURVE",
"83.667 673.833 OFFCURVE",
"115 719.5 CURVE SMOOTH",
"146.333 765.167 OFFCURVE",
"190.667 801.333 OFFCURVE",
"248 828 CURVE SMOOTH",
"305.333 854.667 OFFCURVE",
"372.667 872 OFFCURVE",
"450 880 CURVE",
"450 880 LINE",
"364 886 OFFCURVE",
"292.5 902 OFFCURVE",
"235.5 928 CURVE SMOOTH",
"178.5 954 OFFCURVE",
"135.833 987.667 OFFCURVE",
"107.5 1029 CURVE SMOOTH",
"79.167 1070.333 OFFCURVE",
"65 1117 OFFCURVE",
"65 1169 CURVE SMOOTH",
"65 1225 OFFCURVE",
"79.833 1274.667 OFFCURVE",
"109.5 1318 CURVE SMOOTH",
"139.167 1361.333 OFFCURVE",
"180.667 1395.5 OFFCURVE",
"234 1420.5 CURVE SMOOTH",
"287.333 1445.5 OFFCURVE",
"348.667 1458 OFFCURVE",
"418 1458 CURVE SMOOTH",
"488.667 1458 OFFCURVE",
"550.5 1444.333 OFFCURVE",
"603.5 1417 CURVE SMOOTH",
"656.5 1389.667 OFFCURVE",
"699.833 1352.833 OFFCURVE",
"733.5 1306.5 CURVE SMOOTH",
"767.167 1260.167 OFFCURVE",
"790.333 1208 OFFCURVE",
"803 1150 CURVE",
"803 1145 LINE",
"781.667 1203 OFFCURVE",
"745.667 1250.5 OFFCURVE",
"695 1287.5 CURVE SMOOTH",
"644.333 1324.5 OFFCURVE",
"581.333 1343 OFFCURVE",
"506 1343 CURVE SMOOTH",
"427.333 1343 OFFCURVE",
"363.5 1323.333 OFFCURVE",
"314.5 1284 CURVE SMOOTH",
"265.5 1244.667 OFFCURVE",
"241 1193 OFFCURVE",
"241 1129 CURVE SMOOTH",
"241 1061.667 OFFCURVE",
"273.333 1003.5 OFFCURVE",
"338 954.5 CURVE SMOOTH",
"402.667 905.5 OFFCURVE",
"513 868.333 OFFCURVE",
"669 843 CURVE",
"669 841 LINE",
"532.333 821.667 OFFCURVE",
"429 784.5 OFFCURVE",
"359 729.5 CURVE SMOOTH",
"289 674.5 OFFCURVE",
"254 604 OFFCURVE",
"254 518 CURVE SMOOTH",
"254 458.667 OFFCURVE",
"269 409.333 OFFCURVE",
"299 370 CURVE SMOOTH",
"329 330.667 OFFCURVE",
"368.5 301.5 OFFCURVE",
"417.5 282.5 CURVE SMOOTH",
"466.5 263.5 OFFCURVE",
"519.333 254 OFFCURVE",
"576 254 CURVE SMOOTH",
"632 254 OFFCURVE",
"681.5 262.667 OFFCURVE",
"724.5 280 CURVE SMOOTH",
"767.5 297.333 OFFCURVE",
"801.333 321.167 OFFCURVE",
"826 351.5 CURVE SMOOTH",
"850.667 381.833 OFFCURVE",
"863 417 OFFCURVE",
"863 457 CURVE",
"865 457 LINE",
"865 408.333 OFFCURVE",
"848 366.667 OFFCURVE",
"814 332 CURVE SMOOTH",
"780 297.333 OFFCURVE",
"734.667 270.667 OFFCURVE",
"678 252 CURVE SMOOTH",
"621.333 233.333 OFFCURVE",
"559.333 224 OFFCURVE",
"492 224 CURVE SMOOTH",
"492 224 LINE SMOOTH"
);
},
{
closed = 1;
nodes = (
"729.667 30.667 OFFCURVE",
"719.333 75.667 OFFCURVE",
"710 121 CURVE SMOOTH",
"700.667 166.333 OFFCURVE",
"692 211.667 OFFCURVE",
"684 257 CURVE",
"685 258 LINE",
"722.333 214 OFFCURVE",
"764 169.333 OFFCURVE",
"810 124 CURVE SMOOTH",
"856 78.667 OFFCURVE",
"906.333 33 OFFCURVE",
"961 -13 CURVE",
"961 -14 LINE",
"741 -14 LINE",
"741 -14 LINE"
);
},
{
closed = 1;
nodes = (
"709.667 335 OFFCURVE",
"681 346.667 OFFCURVE",
"657 370 CURVE SMOOTH",
"633 393.333 OFFCURVE",
"621 422.333 OFFCURVE",
"621 457 CURVE SMOOTH",
"621 491.667 OFFCURVE",
"632.667 520.667 OFFCURVE",
"656 544 CURVE SMOOTH",
"679.333 567.333 OFFCURVE",
"708.333 579 OFFCURVE",
"743 579 CURVE SMOOTH",
"777.667 579 OFFCURVE",
"806.667 567.333 OFFCURVE",
"830 544 CURVE SMOOTH",
"853.333 520.667 OFFCURVE",
"865 491.667 OFFCURVE",
"865 457 CURVE",
"863 457 LINE",
"863 422.333 OFFCURVE",
"851.333 393.333 OFFCURVE",
"828 370 CURVE SMOOTH",
"804.667 346.667 OFFCURVE",
"776.333 335 OFFCURVE",
"743 335 CURVE SMOOTH",
"743 335 LINE SMOOTH"
);
}
);
width = 931;
}
);
note = "six-deva";
unicode = 096C;
},
{
glyphname = "seven-deva";
layers = (
{
layerId = "D54EB2A3-8A7B-4735-A983-926C0FC7353D";
paths = (
{
closed = 1;
nodes = (
"625.667 0 OFFCURVE",
"543.667 16.333 OFFCURVE",
"467 49 CURVE SMOOTH",
"390.333 81.667 OFFCURVE",
"323 128.833 OFFCURVE",
"265 190.5 CURVE SMOOTH",
"207 252.167 OFFCURVE",
"161.667 326.667 OFFCURVE",
"129 414 CURVE SMOOTH",
"96.333 501.333 OFFCURVE",
"80 600 OFFCURVE",
"80 710 CURVE SMOOTH",
"80 823.333 OFFCURVE",
"97.333 924.333 OFFCURVE",
"132 1013 CURVE SMOOTH",
"166.667 1101.667 OFFCURVE",
"214 1177.167 OFFCURVE",
"274 1239.5 CURVE SMOOTH",
"334 1301.833 OFFCURVE",
"402.5 1350.333 OFFCURVE",
"479.5 1385 CURVE SMOOTH",
"556.5 1419.667 OFFCURVE",
"637 1439.333 OFFCURVE",
"721 1444 CURVE",
"721 1443 LINE",
"636.333 1421 OFFCURVE",
"565.5 1384.5 OFFCURVE",
"508.5 1333.5 CURVE SMOOTH",
"451.5 1282.5 OFFCURVE",
"406 1221.5 OFFCURVE",
"372 1150.5 CURVE SMOOTH",
"338 1079.5 OFFCURVE",
"313.5 1003.167 OFFCURVE",
"298.5 921.5 CURVE SMOOTH",
"283.5 839.833 OFFCURVE",
"276 758 OFFCURVE",
"276 676 CURVE SMOOTH",
"276 518 OFFCURVE",
"297.5 389.5 OFFCURVE",
"340.5 290.5 CURVE SMOOTH",
"383.5 191.5 OFFCURVE",
"438.5 118.833 OFFCURVE",
"505.5 72.5 CURVE SMOOTH",
"572.5 26.167 OFFCURVE",
"641.667 3 OFFCURVE",
"713 3 CURVE SMOOTH",
"785 3 OFFCURVE",
"846.667 25.5 OFFCURVE",
"898 70.5 CURVE SMOOTH",
"949.333 115.5 OFFCURVE",
"991.333 174.667 OFFCURVE",
"1024 248 CURVE SMOOTH",
"1056.667 321.333 OFFCURVE",
"1080.833 401.5 OFFCURVE",
"1096.5 488.5 CURVE SMOOTH",
"1112.167 575.5 OFFCURVE",
"1120 661 OFFCURVE",
"1120 745 CURVE SMOOTH",
"1120 760.333 OFFCURVE",
"1120 773.333 OFFCURVE",
"1120 784 CURVE SMOOTH",
"1120 794.667 OFFCURVE",
"1120.333 805.667 OFFCURVE",
"1121 817 CURVE",
"1122 817 LINE",
"1122 755 OFFCURVE",
"1112.667 697.833 OFFCURVE",
"1094 645.5 CURVE SMOOTH",
"1075.333 593.167 OFFCURVE",
"1046.5 551.167 OFFCURVE",
"1007.5 519.5 CURVE SMOOTH",
"968.5 487.833 OFFCURVE",
"919 472 OFFCURVE",
"859 472 CURVE SMOOTH",
"794.333 472 OFFCURVE",
"738.167 486 OFFCURVE",
"690.5 514 CURVE SMOOTH",
"642.833 542 OFFCURVE",
"605.833 580.5 OFFCURVE",
"579.5 629.5 CURVE SMOOTH",
"553.167 678.5 OFFCURVE",
"540 735 OFFCURVE",
"540 799 CURVE SMOOTH",
"540 862.333 OFFCURVE",
"555.167 918.667 OFFCURVE",
"585.5 968 CURVE SMOOTH",
"615.833 1017.333 OFFCURVE",
"659.5 1056.167 OFFCURVE",
"716.5 1084.5 CURVE SMOOTH",
"773.5 1112.833 OFFCURVE",
"841.333 1127 OFFCURVE",
"920 1127 CURVE SMOOTH",
"997.333 1127 OFFCURVE",
"1065.333 1110.833 OFFCURVE",
"1124 1078.5 CURVE SMOOTH",
"1182.667 1046.167 OFFCURVE",
"1228.333 995.167 OFFCURVE",
"1261 925.5 CURVE SMOOTH",
"1293.667 855.833 OFFCURVE",
"1310 765 OFFCURVE",
"1310 653 CURVE SMOOTH",
"1310 520.333 OFFCURVE",
"1285.333 405.167 OFFCURVE",
"1236 307.5 CURVE SMOOTH",
"1186.667 209.833 OFFCURVE",
"1117.167 134.167 OFFCURVE",
"1027.5 80.5 CURVE SMOOTH",
"937.833 26.833 OFFCURVE",
"833 0 OFFCURVE",
"713 0 CURVE SMOOTH",
"713 0 LINE SMOOTH"
);
},
{
closed = 1;
nodes = (
"974 527 OFFCURVE",
"1020.833 552.5 OFFCURVE",
"1060.5 603.5 CURVE SMOOTH",
"1100.167 654.5 OFFCURVE",
"1120 725.667 OFFCURVE",
"1120 817 CURVE SMOOTH",
"1120 867.667 OFFCURVE",
"1112.333 916.5 OFFCURVE",
"1097 963.5 CURVE SMOOTH",
"1081.667 1010.5 OFFCURVE",
"1059.167 1049 OFFCURVE",
"1029.5 1079 CURVE SMOOTH",
"999.833 1109 OFFCURVE",
"963.333 1124 OFFCURVE",
"920 1124 CURVE SMOOTH",
"876.667 1124 OFFCURVE",
"840.167 1109.833 OFFCURVE",
"810.5 1081.5 CURVE SMOOTH",
"780.833 1053.167 OFFCURVE",
"758.333 1016.333 OFFCURVE",
"743 971 CURVE SMOOTH",
"727.667 925.667 OFFCURVE",
"720 877.667 OFFCURVE",
"720 827 CURVE SMOOTH",
"720 734.333 OFFCURVE",
"737.167 661.167 OFFCURVE",
"771.5 607.5 CURVE SMOOTH",
"805.833 553.833 OFFCURVE",
"855.333 527 OFFCURVE",
"920 527 CURVE",
"920 527 LINE"
);
}
);
width = 1390;
}
);
note = "seven-deva";
unicode = 096D;
},
{
glyphname = "eight-deva";
layers = (
{
layerId = "D54EB2A3-8A7B-4735-A983-926C0FC7353D";
paths = (
{
closed = 1;
nodes = (
"393.667 1 OFFCURVE",
"323.5 16.5 OFFCURVE",
"260.5 47.5 CURVE SMOOTH",
"197.5 78.5 OFFCURVE",
"147.5 122.333 OFFCURVE",
"110.5 179 CURVE SMOOTH",
"73.5 235.667 OFFCURVE",
"55 301.667 OFFCURVE",
"55 377 CURVE SMOOTH",
"55 410.333 OFFCURVE",
"58.333 445.167 OFFCURVE",
"65 481.5 CURVE SMOOTH",
"71.667 517.833 OFFCURVE",
"82 556.333 OFFCURVE",
"96 597 CURVE SMOOTH",
"110 637.667 OFFCURVE",
"128 680.333 OFFCURVE",
"150 725 CURVE SMOOTH",
"504 1444 LINE",
"716 1444 LINE",
"716 1443 LINE",
"336 674 LINE SMOOTH",
"310 620.667 OFFCURVE",
"289.333 574 OFFCURVE",
"274 534 CURVE SMOOTH",
"258.667 494 OFFCURVE",
"247.667 457 OFFCURVE",
"241 423 CURVE SMOOTH",
"234.333 389 OFFCURVE",
"231 354 OFFCURVE",
"231 318 CURVE SMOOTH",
"231 273.333 OFFCURVE",
"237.667 226.667 OFFCURVE",
"251 178 CURVE SMOOTH",
"264.333 129.333 OFFCURVE",
"288.333 88.167 OFFCURVE",
"323 54.5 CURVE SMOOTH",
"357.667 20.833 OFFCURVE",
"407 4 OFFCURVE",
"471 4 CURVE SMOOTH",
"525 4 OFFCURVE",
"569.5 21 OFFCURVE",
"604.5 55 CURVE SMOOTH",
"639.5 89 OFFCURVE",
"665.5 132.167 OFFCURVE",
"682.5 184.5 CURVE SMOOTH",
"699.5 236.833 OFFCURVE",
"708 290 OFFCURVE",
"708 344 CURVE",
"888 344 LINE",
"881.333 268 OFFCURVE",
"860.167 204.5 OFFCURVE",
"824.5 153.5 CURVE SMOOTH",
"788.833 102.5 OFFCURVE",
"741.167 64.333 OFFCURVE",
"681.5 39 CURVE SMOOTH",
"621.833 13.667 OFFCURVE",
"551.667 1 OFFCURVE",
"471 1 CURVE SMOOTH",
"471 1 LINE SMOOTH"
);
}
);
width = 913;
}
);
note = "eight-deva";
unicode = 096E;
},
{
glyphname = "nine-deva";
layers = (
{
layerId = "D54EB2A3-8A7B-4735-A983-926C0FC7353D";
paths = (
{
closed = 1;
nodes = (
"437 -14 LINE",
"437 -13 LINE",
"479.667 28.333 OFFCURVE",
"516.5 71.667 OFFCURVE",
"547.5 117 CURVE SMOOTH",
"578.5 162.333 OFFCURVE",
"594 210 OFFCURVE",
"594 260 CURVE SMOOTH",
"594 291.333 OFFCURVE",
"586.833 323.5 OFFCURVE",
"572.5 356.5 CURVE SMOOTH",
"558.167 389.5 OFFCURVE",
"532.333 424 OFFCURVE",
"495 460 CURVE SMOOTH",
"422 531 LINE SMOOTH",
"373.333 578.333 OFFCURVE",
"328.833 625 OFFCURVE",
"288.5 671 CURVE SMOOTH",
"248.167 717 OFFCURVE",
"213.167 763 OFFCURVE",
"183.5 809 CURVE SMOOTH",
"153.833 855 OFFCURVE",
"130.833 901.5 OFFCURVE",
"114.5 948.5 CURVE SMOOTH",
"98.167 995.5 OFFCURVE",
"90 1043.667 OFFCURVE",
"90 1093 CURVE SMOOTH",
"90 1173.667 OFFCURVE",
"106.333 1241 OFFCURVE",
"139 1295 CURVE SMOOTH",
"171.667 1349 OFFCURVE",
"216.667 1389.667 OFFCURVE",
"274 1417 CURVE SMOOTH",
"331.333 1444.333 OFFCURVE",
"396.667 1458 OFFCURVE",
"470 1458 CURVE SMOOTH",
"549.333 1458 OFFCURVE",
"617.333 1443.833 OFFCURVE",
"674 1415.5 CURVE SMOOTH",
"730.667 1387.167 OFFCURVE",
"774.167 1348.333 OFFCURVE",
"804.5 1299 CURVE SMOOTH",
"834.833 1249.667 OFFCURVE",
"850 1193.333 OFFCURVE",
"850 1130 CURVE SMOOTH",
"850 1066 OFFCURVE",
"836.833 1009.5 OFFCURVE",
"810.5 960.5 CURVE SMOOTH",
"784.167 911.5 OFFCURVE",
"747.167 873 OFFCURVE",
"699.5 845 CURVE SMOOTH",
"651.833 817 OFFCURVE",
"595.667 803 OFFCURVE",
"531 803 CURVE SMOOTH",
"450.333 803 OFFCURVE",
"386.5 834.333 OFFCURVE",
"339.5 897 CURVE SMOOTH",
"292.5 959.667 OFFCURVE",
"269 1043.333 OFFCURVE",
"269 1148 CURVE",
"270 1148 LINE",
"270 1085.333 OFFCURVE",
"272 1027.167 OFFCURVE",
"276 973.5 CURVE SMOOTH",
"280 919.833 OFFCURVE",
"287.833 869.167 OFFCURVE",
"299.5 821.5 CURVE SMOOTH",
"311.167 773.833 OFFCURVE",
"328.167 727.5 OFFCURVE",
"350.5 682.5 CURVE SMOOTH",
"372.833 637.5 OFFCURVE",
"402 592.333 OFFCURVE",
"438 547 CURVE SMOOTH",
"502 467 LINE SMOOTH",
"548.667 409 OFFCURVE",
"588.167 359.667 OFFCURVE",
"620.5 319 CURVE SMOOTH",
"652.833 278.333 OFFCURVE",
"677.667 242.333 OFFCURVE",
"695 211 CURVE SMOOTH",
"712.333 179.667 OFFCURVE",
"721 148.667 OFFCURVE",
"721 118 CURVE SMOOTH",
"721 96 OFFCURVE",
"716.833 74.167 OFFCURVE",
"708.5 52.5 CURVE SMOOTH",
"700.167 30.833 OFFCURVE",
"686.333 8.667 OFFCURVE",
"667 -14 CURVE",
"437 -14 LINE"
);
},
{
closed = 1;
nodes = (
"535.333 858 OFFCURVE",
"585 884.833 OFFCURVE",
"619 938.5 CURVE SMOOTH",
"653 992.167 OFFCURVE",
"670 1065.333 OFFCURVE",
"670 1158 CURVE SMOOTH",
"670 1208.667 OFFCURVE",
"662.333 1256.667 OFFCURVE",
"647 1302 CURVE SMOOTH",
"631.667 1347.333 OFFCURVE",
"609.167 1384.167 OFFCURVE",
"579.5 1412.5 CURVE SMOOTH",
"549.833 1440.833 OFFCURVE",
"513.333 1455 OFFCURVE",
"470 1455 CURVE SMOOTH",
"426.667 1455 OFFCURVE",
"390.167 1440 OFFCURVE",
"360.5 1410 CURVE SMOOTH",
"330.833 1380 OFFCURVE",
"308.333 1341.5 OFFCURVE",
"293 1294.5 CURVE SMOOTH",
"277.667 1247.5 OFFCURVE",
"270 1198.667 OFFCURVE",
"270 1148 CURVE SMOOTH",
"270 1056.667 OFFCURVE",
"289.833 985.5 OFFCURVE",
"329.5 934.5 CURVE SMOOTH",
"369.167 883.5 OFFCURVE",
"416 858 OFFCURVE",
"470 858 CURVE",
"470 858 LINE"
);
}
);
width = 934;
}
);
note = "nine-deva";
unicode = 096F;
},
{
glyphname = "zero-ar";
layers = (
{
layerId = "D54EB2A3-8A7B-4735-A983-926C0FC7353D";
paths = (
{
closed = 1;
nodes = (
"231.667 556.667 OFFCURVE",
"158 624.667 OFFCURVE",
"80 684 CURVE",
"291 888 LINE",
"332.333 858 OFFCURVE",
"371.333 826 OFFCURVE",
"408 792 CURVE SMOOTH",
"444.667 758 OFFCURVE",
"479.333 722 OFFCURVE",
"512 684 CURVE",
"301 480 LINE",
"301 480 LINE"
);
}
);
width = 592;
}
);
note = "zero-ar";
unicode = 0660;
},
{
glyphname = "one-ar";
layers = (
{
layerId = "D54EB2A3-8A7B-4735-A983-926C0FC7353D";
paths = (
{
closed = 1;
nodes = (
"452.333 9.333 OFFCURVE",
"457 38.5 OFFCURVE",
"461 73.5 CURVE SMOOTH",
"465 108.5 OFFCURVE",
"467 147.333 OFFCURVE",
"467 190 CURVE SMOOTH",
"467 293.333 OFFCURVE",
"453.167 403.333 OFFCURVE",
"425.5 520 CURVE SMOOTH",
"397.833 636.667 OFFCURVE",
"354.167 756.5 OFFCURVE",
"294.5 879.5 CURVE SMOOTH",
"234.833 1002.5 OFFCURVE",
"156.667 1125 OFFCURVE",
"60 1247 CURVE",
"167 1458 LINE",
"168 1458 LINE",
"308.667 1269.333 OFFCURVE",
"410 1088.333 OFFCURVE",
"472 915 CURVE SMOOTH",
"534 741.667 OFFCURVE",
"565 584.333 OFFCURVE",
"565 443 CURVE SMOOTH",
"565 379 OFFCURVE",
"559.667 320.167 OFFCURVE",
"549 266.5 CURVE SMOOTH",
"538.333 212.833 OFFCURVE",
"524.167 163 OFFCURVE",
"506.5 117 CURVE SMOOTH",
"488.833 71 OFFCURVE",
"469.333 27.333 OFFCURVE",
"448 -14 CURVE",
"447 -14 LINE",
"447 -14 LINE"
);
}
);
width = 705;
}
);
note = "one-ar";
unicode = 0661;
},
{
glyphname = "two-ar";
layers = (
{
layerId = "D54EB2A3-8A7B-4735-A983-926C0FC7353D";
paths = (
{
closed = 1;
nodes = (
"513.333 4.667 OFFCURVE",
"516.5 29 OFFCURVE",
"519.5 59 CURVE SMOOTH",
"522.5 89 OFFCURVE",
"524 124.333 OFFCURVE",
"524 165 CURVE SMOOTH",
"524 287.667 OFFCURVE",
"506.5 408.833 OFFCURVE",
"471.5 528.5 CURVE SMOOTH",
"436.5 648.167 OFFCURVE",
"384.667 767.5 OFFCURVE",
"316 886.5 CURVE SMOOTH",
"247.333 1005.5 OFFCURVE",
"162 1125.333 OFFCURVE",
"60 1246 CURVE",
"167 1458 LINE",
"168 1458 LINE",
"257 1163 LINE",
"360 1163 LINE",
"422.667 1075.667 OFFCURVE",
"472.333 989 OFFCURVE",
"509 903 CURVE SMOOTH",
"545.667 817 OFFCURVE",
"572 733.667 OFFCURVE",
"588 653 CURVE SMOOTH",
"604 572.333 OFFCURVE",
"612 495.667 OFFCURVE",
"612 423 CURVE SMOOTH",
"612 362.333 OFFCURVE",
"607.167 305.167 OFFCURVE",
"597.5 251.5 CURVE SMOOTH",
"587.833 197.833 OFFCURVE",
"575.333 148.667 OFFCURVE",
"560 104 CURVE SMOOTH",
"544.667 59.333 OFFCURVE",
"528.333 20 OFFCURVE",
"511 -14 CURVE",
"510 -14 LINE",
"510 -14 LINE"
);
},
{
closed = 1;
nodes = (
"463.667 927 OFFCURVE",
"387.333 950.667 OFFCURVE",
"320 998 CURVE SMOOTH",
"252.667 1045.333 OFFCURVE",
"201 1110.333 OFFCURVE",
"165 1193 CURVE",
"168 1458 LINE",
"200 1404 OFFCURVE",
"236.333 1352.5 OFFCURVE",
"277 1303.5 CURVE SMOOTH",
"317.667 1254.5 OFFCURVE",
"364.5 1214.5 OFFCURVE",
"417.5 1183.5 CURVE SMOOTH",
"470.5 1152.5 OFFCURVE",
"531.333 1137 OFFCURVE",
"600 1137 CURVE SMOOTH",
"662.667 1137 OFFCURVE",
"716 1150.5 OFFCURVE",
"760 1177.5 CURVE SMOOTH",
"804 1204.5 OFFCURVE",
"838.167 1242 OFFCURVE",
"862.5 1290 CURVE SMOOTH",
"886.833 1338 OFFCURVE",
"900.667 1393.667 OFFCURVE",
"904 1457 CURVE",
"905 1457 LINE",
"907.667 1442.333 OFFCURVE",
"910 1424.333 OFFCURVE",
"912 1403 CURVE SMOOTH",
"914 1381.667 OFFCURVE",
"915 1357 OFFCURVE",
"915 1329 CURVE SMOOTH",
"915 1254.333 OFFCURVE",
"900.167 1186.667 OFFCURVE",
"870.5 1126 CURVE SMOOTH",
"840.833 1065.333 OFFCURVE",
"798.667 1017 OFFCURVE",
"744 981 CURVE SMOOTH",
"689.333 945 OFFCURVE",
"624.333 927 OFFCURVE",
"549 927 CURVE SMOOTH",
"549 927 LINE SMOOTH"
);
}
);
width = 955;
}
);
note = "two-ar";
unicode = 0662;
},
{
glyphname = "three-ar";
layers = (
{
layerId = "D54EB2A3-8A7B-4735-A983-926C0FC7353D";
paths = (
{
closed = 1;
nodes = (
"513.333 4.667 OFFCURVE",
"516.5 29 OFFCURVE",
"519.5 59 CURVE SMOOTH",
"522.5 89 OFFCURVE",
"524 124.333 OFFCURVE",
"524 165 CURVE SMOOTH",
"524 287.667 OFFCURVE",
"506.5 408.833 OFFCURVE",
"471.5 528.5 CURVE SMOOTH",
"436.5 648.167 OFFCURVE",
"384.667 767.5 OFFCURVE",
"316 886.5 CURVE SMOOTH",
"247.333 1005.5 OFFCURVE",
"162 1125.333 OFFCURVE",
"60 1246 CURVE",
"167 1458 LINE",
"168 1458 LINE",
"257 1163 LINE",
"360 1163 LINE",
"419.333 1075.667 OFFCURVE",
"467.5 989 OFFCURVE",
"504.5 903 CURVE SMOOTH",
"541.5 817 OFFCURVE",
"568.667 733.5 OFFCURVE",
"586 652.5 CURVE SMOOTH",
"603.333 571.5 OFFCURVE",
"612 494 OFFCURVE",
"612 420 CURVE SMOOTH",
"612 360.667 OFFCURVE",
"607.167 304.333 OFFCURVE",
"597.5 251 CURVE SMOOTH",
"587.833 197.667 OFFCURVE",
"575.333 148.667 OFFCURVE",
"560 104 CURVE SMOOTH",
"544.667 59.333 OFFCURVE",
"528.333 20 OFFCURVE",
"511 -14 CURVE",
"510 -14 LINE",
"510 -14 LINE"
);
},
{
closed = 1;
nodes = (
"415.333 965 OFFCURVE",
"349.167 988.167 OFFCURVE",
"283.5 1034.5 CURVE SMOOTH",
"217.833 1080.833 OFFCURVE",
"154.667 1161.667 OFFCURVE",
"94 1277 CURVE",
"168 1458 LINE",
"233.333 1360 OFFCURVE",
"292.833 1286.667 OFFCURVE",
"346.5 1238 CURVE SMOOTH",
"400.167 1189.333 OFFCURVE",
"453.667 1165 OFFCURVE",
"507 1165 CURVE SMOOTH",
"559.667 1165 OFFCURVE",
"602.5 1189 OFFCURVE",
"635.5 1237 CURVE SMOOTH",
"668.5 1285 OFFCURVE",
"687.667 1358.333 OFFCURVE",
"693 1457 CURVE",
"694 1457 LINE",
"699.333 1358.333 OFFCURVE",
"722.167 1285 OFFCURVE",
"762.5 1237 CURVE SMOOTH",
"802.833 1189 OFFCURVE",
"850.333 1165 OFFCURVE",
"905 1165 CURVE SMOOTH",
"957.667 1165 OFFCURVE",
"1002.167 1188 OFFCURVE",
"1038.5 1234 CURVE SMOOTH",
"1074.833 1280 OFFCURVE",
"1093 1354.667 OFFCURVE",
"1093 1458 CURVE",
"1094 1458 LINE",
"1097.333 1438.667 OFFCURVE",
"1100.167 1418 OFFCURVE",
"1102.5 1396 CURVE SMOOTH",
"1104.833 1374 OFFCURVE",
"1106 1351.333 OFFCURVE",
"1106 1328 CURVE SMOOTH",
"1106 1227.333 OFFCURVE",
"1084 1146.667 OFFCURVE",
"1040 1086 CURVE SMOOTH",
"996 1025.333 OFFCURVE",
"939 995 OFFCURVE",
"869 995 CURVE SMOOTH",
"826.333 995 OFFCURVE",
"788.667 1005.833 OFFCURVE",
"756 1027.5 CURVE SMOOTH",
"723.333 1049.167 OFFCURVE",
"697.833 1077.167 OFFCURVE",
"679.5 1111.5 CURVE SMOOTH",
"661.167 1145.833 OFFCURVE",
"652 1181.667 OFFCURVE",
"652 1219 CURVE",
"720 1219 LINE",
"720 1143.667 OFFCURVE",
"698.333 1082.5 OFFCURVE",
"655 1035.5 CURVE SMOOTH",
"611.667 988.5 OFFCURVE",
"554 965 OFFCURVE",
"482 965 CURVE SMOOTH",
"482 965 LINE SMOOTH"
);
}
);
width = 1146;
}
);
note = "three-ar";
unicode = 0663;
},
{
glyphname = "four-ar";
layers = (
{
layerId = "D54EB2A3-8A7B-4735-A983-926C0FC7353D";
paths = (
{
closed = 1;
nodes = (
"378.667 0 OFFCURVE",
"307 14 OFFCURVE",
"249 42 CURVE SMOOTH",
"191 70 OFFCURVE",
"147.333 106.667 OFFCURVE",
"118 152 CURVE SMOOTH",
"88.667 197.333 OFFCURVE",
"74 245.667 OFFCURVE",
"74 297 CURVE SMOOTH",
"74 345.667 OFFCURVE",
"89.167 392.333 OFFCURVE",
"119.5 437 CURVE SMOOTH",
"149.833 481.667 OFFCURVE",
"186.5 522.333 OFFCURVE",
"229.5 559 CURVE SMOOTH",
"272.5 595.667 OFFCURVE",
"313.833 627.167 OFFCURVE",
"353.5 653.5 CURVE SMOOTH",
"393.167 679.833 OFFCURVE",
"422.333 698.667 OFFCURVE",
"441 710 CURVE",
"441 627 LINE",
"375 641.667 OFFCURVE",
"314.167 665.667 OFFCURVE",
"258.5 699 CURVE SMOOTH",
"202.833 732.333 OFFCURVE",
"158.167 774.5 OFFCURVE",
"124.5 825.5 CURVE SMOOTH",
"90.833 876.5 OFFCURVE",
"74 935 OFFCURVE",
"74 1001 CURVE SMOOTH",
"74 1035 OFFCURVE",
"85.833 1073.667 OFFCURVE",
"109.5 1117 CURVE SMOOTH",
"133.167 1160.333 OFFCURVE",
"169.333 1203.667 OFFCURVE",
"218 1247 CURVE SMOOTH",
"266.667 1290.333 OFFCURVE",
"328.5 1329.5 OFFCURVE",
"403.5 1364.5 CURVE SMOOTH",
"478.5 1399.5 OFFCURVE",
"567 1426 OFFCURVE",
"669 1444 CURVE",
"669 1224 LINE",
"529.667 1213.333 OFFCURVE",
"416.5 1194.833 OFFCURVE",
"329.5 1168.5 CURVE SMOOTH",
"242.5 1142.167 OFFCURVE",
"178.833 1113.833 OFFCURVE",
"138.5 1083.5 CURVE SMOOTH",
"98.167 1053.167 OFFCURVE",
"78 1025.667 OFFCURVE",
"78 1001 CURVE SMOOTH",
"78 971.667 OFFCURVE",
"95.833 943 OFFCURVE",
"131.5 915 CURVE SMOOTH",
"167.167 887 OFFCURVE",
"228 864 OFFCURVE",
"314 846 CURVE SMOOTH",
"400 828 OFFCURVE",
"518.333 819 OFFCURVE",
"669 819 CURVE",
"669 818 LINE",
"578 612 LINE",
"524 606 OFFCURVE",
"469.5 596 OFFCURVE",
"414.5 582 CURVE SMOOTH",
"359.5 568 OFFCURVE",
"309.167 551 OFFCURVE",
"263.5 531 CURVE SMOOTH",
"217.833 511 OFFCURVE",
"181.167 488.833 OFFCURVE",
"153.5 464.5 CURVE SMOOTH",
"125.833 440.167 OFFCURVE",
"112 414 OFFCURVE",
"112 386 CURVE SMOOTH",
"112 344 OFFCURVE",
"138.167 305.167 OFFCURVE",
"190.5 269.5 CURVE SMOOTH",
"242.833 233.833 OFFCURVE",
"330.667 216 OFFCURVE",
"454 216 CURVE SMOOTH",
"498 216 OFFCURVE",
"541.833 218.667 OFFCURVE",
"585.5 224 CURVE SMOOTH",
"629.167 229.333 OFFCURVE",
"670.167 236.167 OFFCURVE",
"708.5 244.5 CURVE SMOOTH",
"746.833 252.833 OFFCURVE",
"779.667 261.333 OFFCURVE",
"807 270 CURVE",
"807 269 LINE",
"686 28 LINE",
"669.333 23.333 OFFCURVE",
"648.667 18.833 OFFCURVE",
"624 14.5 CURVE SMOOTH",
"599.333 10.167 OFFCURVE",
"573.167 6.667 OFFCURVE",
"545.5 4 CURVE SMOOTH",
"517.833 1.333 OFFCURVE",
"490.667 0 OFFCURVE",
"464 0 CURVE SMOOTH",
"464 0 LINE SMOOTH"
);
}
);
width = 828;
}
);
note = "four-ar";
unicode = 0664;
},
{
glyphname = "five-ar";
layers = (
{
layerId = "D54EB2A3-8A7B-4735-A983-926C0FC7353D";
paths = (
{
closed = 1;
nodes = (
"381.667 181 OFFCURVE",
"314.5 198.833 OFFCURVE",
"255.5 234.5 CURVE SMOOTH",
"196.5 270.167 OFFCURVE",
"150.167 321.167 OFFCURVE",
"116.5 387.5 CURVE SMOOTH",
"82.833 453.833 OFFCURVE",
"66 533.333 OFFCURVE",
"66 626 CURVE SMOOTH",
"66 684.667 OFFCURVE",
"72.167 745.5 OFFCURVE",
"84.5 808.5 CURVE SMOOTH",
"96.833 871.5 OFFCURVE",
"114.667 932.333 OFFCURVE",
"138 991 CURVE SMOOTH",
"161.333 1049.667 OFFCURVE",
"189.167 1102.5 OFFCURVE",
"221.5 1149.5 CURVE SMOOTH",
"253.833 1196.5 OFFCURVE",
"289.833 1233.833 OFFCURVE",
"329.5 1261.5 CURVE SMOOTH",
"369.167 1289.167 OFFCURVE",
"411.667 1303 OFFCURVE",
"457 1303 CURVE SMOOTH",
"502.333 1303 OFFCURVE",
"545 1289.167 OFFCURVE",
"585 1261.5 CURVE SMOOTH",
"625 1233.833 OFFCURVE",
"661.167 1196.5 OFFCURVE",
"693.5 1149.5 CURVE SMOOTH",
"725.833 1102.5 OFFCURVE",
"753.667 1049.667 OFFCURVE",
"777 991 CURVE SMOOTH",
"800.333 932.333 OFFCURVE",
"818.333 871.5 OFFCURVE",
"831 808.5 CURVE SMOOTH",
"843.667 745.5 OFFCURVE",
"850 684.667 OFFCURVE",
"850 626 CURVE SMOOTH",
"850 533.333 OFFCURVE",
"833 453.833 OFFCURVE",
"799 387.5 CURVE SMOOTH",
"765 321.167 OFFCURVE",
"718.5 270.167 OFFCURVE",
"659.5 234.5 CURVE SMOOTH",
"600.5 198.833 OFFCURVE",
"533 181 OFFCURVE",
"457 181 CURVE SMOOTH",
"457 181 LINE SMOOTH"
);
},
{
closed = 1;
nodes = (
"577.667 401 OFFCURVE",
"672.667 423.667 OFFCURVE",
"742 469 CURVE SMOOTH",
"811.333 514.333 OFFCURVE",
"846 580.667 OFFCURVE",
"846 668 CURVE SMOOTH",
"846 704 OFFCURVE",
"837.167 745.167 OFFCURVE",
"819.5 791.5 CURVE SMOOTH",
"801.833 837.833 OFFCURVE",
"776 882.333 OFFCURVE",
"742 925 CURVE SMOOTH",
"708 967.667 OFFCURVE",
"667 1003 OFFCURVE",
"619 1031 CURVE SMOOTH",
"571 1059 OFFCURVE",
"517 1073 OFFCURVE",
"457 1073 CURVE SMOOTH",
"397 1073 OFFCURVE",
"343 1059 OFFCURVE",
"295 1031 CURVE SMOOTH",
"247 1003 OFFCURVE",
"206.333 967.5 OFFCURVE",
"173 924.5 CURVE SMOOTH",
"139.667 881.5 OFFCURVE",
"114.167 837 OFFCURVE",
"96.5 791 CURVE SMOOTH",
"78.833 745 OFFCURVE",
"70 703.667 OFFCURVE",
"70 667 CURVE SMOOTH",
"70 578.333 OFFCURVE",
"104.333 511.833 OFFCURVE",
"173 467.5 CURVE SMOOTH",
"241.667 423.167 OFFCURVE",
"336.333 401 OFFCURVE",
"457 401 CURVE",
"457 401 LINE"
);
}
);
width = 916;
}
);
note = "five-ar";
unicode = 0665;
},
{
glyphname = "six-ar";
layers = (
{
layerId = "D54EB2A3-8A7B-4735-A983-926C0FC7353D";
paths = (
{
closed = 1;
nodes = (
"801.333 113.333 OFFCURVE",
"753.333 252.667 OFFCURVE",
"722 404 CURVE SMOOTH",
"690.667 555.333 OFFCURVE",
"675 714 OFFCURVE",
"675 880 CURVE SMOOTH",
"675 941.333 OFFCURVE",
"676.833 999.167 OFFCURVE",
"680.5 1053.5 CURVE SMOOTH",
"684.167 1107.833 OFFCURVE",
"689 1164.667 OFFCURVE",
"695 1224 CURVE",
"50 1224 LINE",
"50 1444 LINE",
"700 1444 LINE",
"698.667 1419.333 OFFCURVE",
"697.667 1397.333 OFFCURVE",
"697 1378 CURVE SMOOTH",
"696.333 1358.667 OFFCURVE",
"696 1339.333 OFFCURVE",
"696 1320 CURVE SMOOTH",
"696 1158.667 OFFCURVE",
"711.833 1008.333 OFFCURVE",
"743.5 869 CURVE SMOOTH",
"775.167 729.667 OFFCURVE",
"814.167 606.333 OFFCURVE",
"860.5 499 CURVE SMOOTH",
"906.833 391.667 OFFCURVE",
"951.333 304.667 OFFCURVE",
"994 238 CURVE",
"867 -14 LINE",
"866 -14 LINE",
"866 -14 LINE"
);
}
);
width = 1042;
}
);
note = "six-ar";
unicode = 0666;
},
{
glyphname = "seven-ar";
layers = (
{
layerId = "D54EB2A3-8A7B-4735-A983-926C0FC7353D";
paths = (
{
closed = 1;
nodes = (
"510 83.333 OFFCURVE",
"503.167 187.167 OFFCURVE",
"489.5 297.5 CURVE SMOOTH",
"475.833 407.833 OFFCURVE",
"451.833 518.5 OFFCURVE",
"417.5 629.5 CURVE SMOOTH",
"383.167 740.5 OFFCURVE",
"335.333 846.333 OFFCURVE",
"274 947 CURVE SMOOTH",
"212.667 1047.667 OFFCURVE",
"134.667 1136.667 OFFCURVE",
"40 1214 CURVE",
"40 1444 LINE",
"41 1444 LINE",
"142.333 1384 OFFCURVE",
"227.333 1311.833 OFFCURVE",
"296 1227.5 CURVE SMOOTH",
"364.667 1143.167 OFFCURVE",
"419.5 1055.667 OFFCURVE",
"460.5 965 CURVE SMOOTH",
"501.5 874.333 OFFCURVE",
"531.333 789.167 OFFCURVE",
"550 709.5 CURVE SMOOTH",
"568.667 629.833 OFFCURVE",
"579 564.333 OFFCURVE",
"581 513 CURVE",
"582 513 LINE",
"582 627 OFFCURVE",
"595.667 741 OFFCURVE",
"623 855 CURVE SMOOTH",
"650.333 969 OFFCURVE",
"693.333 1076.667 OFFCURVE",
"752 1178 CURVE SMOOTH",
"810.667 1279.333 OFFCURVE",
"886.667 1368 OFFCURVE",
"980 1444 CURVE",
"980 1214 LINE",
"906 1146 OFFCURVE",
"839.833 1065.667 OFFCURVE",
"781.5 973 CURVE SMOOTH",
"723.167 880.333 OFFCURVE",
"674 779.667 OFFCURVE",
"634 671 CURVE SMOOTH",
"594 562.333 OFFCURVE",
"563.5 449.833 OFFCURVE",
"542.5 333.5 CURVE SMOOTH",
"521.5 217.167 OFFCURVE",
"511 101.333 OFFCURVE",
"511 -14 CURVE",
"510 -14 LINE",
"510 -14 LINE"
);
}
);
width = 1020;
}
);
note = "seven-ar";
unicode = 0667;
},
{
glyphname = "eight-ar";
layers = (
{
layerId = "D54EB2A3-8A7B-4735-A983-926C0FC7353D";
paths = (
{
closed = 1;
nodes = (
"510 1360.667 OFFCURVE",
"516.833 1256.833 OFFCURVE",
"530.5 1146.5 CURVE SMOOTH",
"544.167 1036.167 OFFCURVE",
"568.167 925.5 OFFCURVE",
"602.5 814.5 CURVE SMOOTH",
"636.833 703.5 OFFCURVE",
"684.667 597.667 OFFCURVE",
"746 497 CURVE SMOOTH",
"807.333 396.333 OFFCURVE",
"885.333 307.333 OFFCURVE",
"980 230 CURVE",
"980 0 LINE",
"979 0 LINE",
"877.667 60 OFFCURVE",
"792.667 132.167 OFFCURVE",
"724 216.5 CURVE SMOOTH",
"655.333 300.833 OFFCURVE",
"600.5 388.333 OFFCURVE",
"559.5 479 CURVE SMOOTH",
"518.5 569.667 OFFCURVE",
"488.667 655 OFFCURVE",
"470 735 CURVE SMOOTH",
"451.333 815 OFFCURVE",
"441 880.333 OFFCURVE",
"439 931 CURVE",
"438 931 LINE",
"438 817 OFFCURVE",
"424.333 703 OFFCURVE",
"397 589 CURVE SMOOTH",
"369.667 475 OFFCURVE",
"326.833 367.333 OFFCURVE",
"268.5 266 CURVE SMOOTH",
"210.167 164.667 OFFCURVE",
"134 76 OFFCURVE",
"40 0 CURVE",
"40 230 LINE",
"114 298 OFFCURVE",
"180.167 378.333 OFFCURVE",
"238.5 471 CURVE SMOOTH",
"296.833 563.667 OFFCURVE",
"346 664.333 OFFCURVE",
"386 773 CURVE SMOOTH",
"426 881.667 OFFCURVE",
"456.5 994.167 OFFCURVE",
"477.5 1110.5 CURVE SMOOTH",
"498.5 1226.833 OFFCURVE",
"509 1342.667 OFFCURVE",
"509 1458 CURVE",
"510 1458 LINE",
"510 1458 LINE"
);
}
);
width = 1020;
}
);
note = "eight-ar";
unicode = 0668;
},
{
glyphname = "nine-ar";
layers = (
{
layerId = "D54EB2A3-8A7B-4735-A983-926C0FC7353D";
paths = (
{
closed = 1;
nodes = (
"684.333 923.667 OFFCURVE",
"661.667 987.5 OFFCURVE",
"629 1046.5 CURVE SMOOTH",
"596.333 1105.5 OFFCURVE",
"553.833 1153.167 OFFCURVE",
"501.5 1189.5 CURVE SMOOTH",
"449.167 1225.833 OFFCURVE",
"386 1244 OFFCURVE",
"312 1244 CURVE SMOOTH",
"263.333 1244 OFFCURVE",
"218.167 1235 OFFCURVE",
"176.5 1217 CURVE SMOOTH",
"134.833 1199 OFFCURVE",
"101.167 1174.167 OFFCURVE",
"75.5 1142.5 CURVE SMOOTH",
"49.833 1110.833 OFFCURVE",
"37 1075 OFFCURVE",
"37 1035 CURVE SMOOTH",
"37 985.667 OFFCURVE",
"66 948.167 OFFCURVE",
"124 922.5 CURVE SMOOTH",
"182 896.833 OFFCURVE",
"263.667 884 OFFCURVE",
"369 884 CURVE SMOOTH",
"430.333 884 OFFCURVE",
"492.167 888.667 OFFCURVE",
"554.5 898 CURVE SMOOTH",
"616.833 907.333 OFFCURVE",
"667 917.333 OFFCURVE",
"705 928 CURVE",
"727 728 LINE",
"683.667 709.333 OFFCURVE",
"633.167 695 OFFCURVE",
"575.5 685 CURVE SMOOTH",
"517.833 675 OFFCURVE",
"464.333 670 OFFCURVE",
"415 670 CURVE SMOOTH",
"327.667 670 OFFCURVE",
"255.833 684 OFFCURVE",
"199.5 712 CURVE SMOOTH",
"143.167 740 OFFCURVE",
"101.5 780.5 OFFCURVE",
"74.5 833.5 CURVE SMOOTH",
"47.5 886.5 OFFCURVE",
"34 950 OFFCURVE",
"34 1024 CURVE SMOOTH",
"34 1107.333 OFFCURVE",
"47.333 1181.667 OFFCURVE",
"74 1247 CURVE SMOOTH",
"100.667 1312.333 OFFCURVE",
"138.833 1363.833 OFFCURVE",
"188.5 1401.5 CURVE SMOOTH",
"238.167 1439.167 OFFCURVE",
"297.667 1458 OFFCURVE",
"367 1458 CURVE SMOOTH",
"439 1458 OFFCURVE",
"499.833 1437.167 OFFCURVE",
"549.5 1395.5 CURVE SMOOTH",
"599.167 1353.833 OFFCURVE",
"639.833 1296 OFFCURVE",
"671.5 1222 CURVE SMOOTH",
"703.167 1148 OFFCURVE",
"727.333 1062 OFFCURVE",
"744 964 CURVE SMOOTH",
"762.667 856 OFFCURVE",
"782.333 764 OFFCURVE",
"803 688 CURVE SMOOTH",
"823.667 612 OFFCURVE",
"845.167 547 OFFCURVE",
"867.5 493 CURVE SMOOTH",
"889.833 439 OFFCURVE",
"913 391.333 OFFCURVE",
"937 350 CURVE SMOOTH",
"961 308.667 OFFCURVE",
"986 268 OFFCURVE",
"1012 228 CURVE",
"890 -14 LINE",
"889 -14 LINE",
"855 44.667 OFFCURVE",
"825.667 110.667 OFFCURVE",
"801 184 CURVE SMOOTH",
"776.333 257.333 OFFCURVE",
"756.667 336.333 OFFCURVE",
"742 421 CURVE SMOOTH",
"727.333 505.667 OFFCURVE",
"717.667 594.333 OFFCURVE",
"713 687 CURVE",
"697 855 LINE",
"697 855 LINE"
);
}
);
width = 1060;
}
);
note = "nine-ar";
unicode = 0669;
},
{
glyphname = "four-persian";
layers = (
{
layerId = "D54EB2A3-8A7B-4735-A983-926C0FC7353D";
paths = (
{
closed = 1;
nodes = (
"513.333 4.667 OFFCURVE",
"516.5 29 OFFCURVE",
"519.5 59 CURVE SMOOTH",
"522.5 89 OFFCURVE",
"524 124.333 OFFCURVE",
"524 165 CURVE SMOOTH",
"524 287.667 OFFCURVE",
"506.5 408.833 OFFCURVE",
"471.5 528.5 CURVE SMOOTH",
"436.5 648.167 OFFCURVE",
"384.667 767.5 OFFCURVE",
"316 886.5 CURVE SMOOTH",
"247.333 1005.5 OFFCURVE",
"162 1125.333 OFFCURVE",
"60 1246 CURVE",
"167 1458 LINE",
"168 1458 LINE",
"360 1163 LINE",
"422.667 1075.667 OFFCURVE",
"472.333 989 OFFCURVE",
"509 903 CURVE SMOOTH",
"545.667 817 OFFCURVE",
"572 733.667 OFFCURVE",
"588 653 CURVE SMOOTH",
"604 572.333 OFFCURVE",
"612 495.667 OFFCURVE",
"612 423 CURVE SMOOTH",
"612 362.333 OFFCURVE",
"607.167 305.167 OFFCURVE",
"597.5 251.5 CURVE SMOOTH",
"587.833 197.833 OFFCURVE",
"575.333 148.667 OFFCURVE",
"560 104 CURVE SMOOTH",
"544.667 59.333 OFFCURVE",
"528.333 20 OFFCURVE",
"511 -14 CURVE",
"510 -14 LINE",
"510 -14 LINE"
);
},
{
closed = 1;
nodes = (
"673.333 809 OFFCURVE",
"596.833 818.333 OFFCURVE",
"522.5 837 CURVE SMOOTH",
"448.167 855.667 OFFCURVE",
"381.5 888.333 OFFCURVE",
"322.5 935 CURVE SMOOTH",
"263.5 981.667 OFFCURVE",
"217.333 1047 OFFCURVE",
"184 1131 CURVE",
"168 1458 LINE",
"215.333 1391.333 OFFCURVE",
"259.5 1330.5 OFFCURVE",
"300.5 1275.5 CURVE SMOOTH",
"341.5 1220.5 OFFCURVE",
"384.167 1173 OFFCURVE",
"428.5 1133 CURVE SMOOTH",
"472.833 1093 OFFCURVE",
"523.5 1062.333 OFFCURVE",
"580.5 1041 CURVE SMOOTH",
"637.5 1019.667 OFFCURVE",
"706 1009 OFFCURVE",
"786 1009 CURVE SMOOTH",
"829.333 1009 OFFCURVE",
"872 1011.667 OFFCURVE",
"914 1017 CURVE SMOOTH",
"956 1022.333 OFFCURVE",
"996.333 1028.333 OFFCURVE",
"1035 1035 CURVE",
"1035 1034 LINE",
"932 824 LINE",
"910 820 OFFCURVE",
"883.833 816.5 OFFCURVE",
"853.5 813.5 CURVE SMOOTH",
"823.167 810.5 OFFCURVE",
"789.333 809 OFFCURVE",
"752 809 CURVE SMOOTH",
"752 809 LINE SMOOTH"
);
},
{
closed = 1;
nodes = (
"692 909 OFFCURVE",
"648.333 917.833 OFFCURVE",
"615 935.5 CURVE SMOOTH",
"581.667 953.167 OFFCURVE",
"556.333 975.667 OFFCURVE",
"539 1003 CURVE SMOOTH",
"521.667 1030.333 OFFCURVE",
"509.833 1058.5 OFFCURVE",
"503.5 1087.5 CURVE SMOOTH",
"497.167 1116.5 OFFCURVE",
"494 1142 OFFCURVE",
"494 1164 CURVE SMOOTH",
"494 1210 OFFCURVE",
"503.333 1255.667 OFFCURVE",
"522 1301 CURVE SMOOTH",
"540.667 1346.333 OFFCURVE",
"568.333 1383.833 OFFCURVE",
"605 1413.5 CURVE SMOOTH",
"641.667 1443.167 OFFCURVE",
"686.667 1458 OFFCURVE",
"740 1458 CURVE SMOOTH",
"787.333 1458 OFFCURVE",
"829.167 1445 OFFCURVE",
"865.5 1419 CURVE SMOOTH",
"901.833 1393 OFFCURVE",
"930.833 1356 OFFCURVE",
"952.5 1308 CURVE SMOOTH",
"974.167 1260 OFFCURVE",
"986.667 1202.333 OFFCURVE",
"990 1135 CURVE",
"990 1129 LINE",
"977.333 1170.333 OFFCURVE",
"948.667 1203.833 OFFCURVE",
"904 1229.5 CURVE SMOOTH",
"859.333 1255.167 OFFCURVE",
"801.333 1268 OFFCURVE",
"730 1268 CURVE SMOOTH",
"660 1268 OFFCURVE",
"603.5 1257.333 OFFCURVE",
"560.5 1236 CURVE SMOOTH",
"517.5 1214.667 OFFCURVE",
"496 1185.333 OFFCURVE",
"496 1148 CURVE SMOOTH",
"496 1124 OFFCURVE",
"506.833 1101.333 OFFCURVE",
"528.5 1080 CURVE SMOOTH",
"550.167 1058.667 OFFCURVE",
"582.667 1041.5 OFFCURVE",
"626 1028.5 CURVE SMOOTH",
"669.333 1015.5 OFFCURVE",
"722.667 1009 OFFCURVE",
"786 1009 CURVE",
"746 909 LINE",
"746 909 LINE SMOOTH"
);
}
);
width = 1075;
}
);
note = "four-persian";
unicode = 06F4;
},
{
glyphname = "five-persian";
layers = (
{
layerId = "D54EB2A3-8A7B-4735-A983-926C0FC7353D";
paths = (
{
closed = 1;
nodes = (
"239 0 OFFCURVE",
"194.167 18.5 OFFCURVE",
"160.5 55.5 CURVE SMOOTH",
"126.833 92.5 OFFCURVE",
"102.667 142.167 OFFCURVE",
"88 204.5 CURVE SMOOTH",
"73.333 266.833 OFFCURVE",
"66 336 OFFCURVE",
"66 412 CURVE SMOOTH",
"66 494 OFFCURVE",
"74 573.5 OFFCURVE",
"90 650.5 CURVE SMOOTH",
"106 727.5 OFFCURVE",
"129 801.5 OFFCURVE",
"159 872.5 CURVE SMOOTH",
"189 943.5 OFFCURVE",
"224.833 1011.167 OFFCURVE",
"266.5 1075.5 CURVE SMOOTH",
"308.167 1139.833 OFFCURVE",
"355 1200.333 OFFCURVE",
"407 1257 CURVE",
"572 1131 LINE",
"458 1069 OFFCURVE",
"363.833 1000 OFFCURVE",
"289.5 924 CURVE SMOOTH",
"215.167 848 OFFCURVE",
"160 770.167 OFFCURVE",
"124 690.5 CURVE SMOOTH",
"88 610.833 OFFCURVE",
"70 534 OFFCURVE",
"70 460 CURVE SMOOTH",
"70 416.667 OFFCURVE",
"76.333 375.167 OFFCURVE",
"89 335.5 CURVE SMOOTH",
"101.667 295.833 OFFCURVE",
"123.833 263.333 OFFCURVE",
"155.5 238 CURVE SMOOTH",
"187.167 212.667 OFFCURVE",
"231 200 OFFCURVE",
"287 200 CURVE SMOOTH",
"363 200 OFFCURVE",
"419.667 224.333 OFFCURVE",
"457 273 CURVE SMOOTH",
"494.333 321.667 OFFCURVE",
"513 386.333 OFFCURVE",
"513 467 CURVE SMOOTH",
"513 476 LINE",
"515 476 LINE",
"515 467 LINE SMOOTH",
"515 391.667 OFFCURVE",
"530.5 328.333 OFFCURVE",
"561.5 277 CURVE SMOOTH",
"592.5 225.667 OFFCURVE",
"649.333 200 OFFCURVE",
"732 200 CURVE SMOOTH",
"814 200 OFFCURVE",
"871.833 225.5 OFFCURVE",
"905.5 276.5 CURVE SMOOTH",
"939.167 327.5 OFFCURVE",
"956 391.333 OFFCURVE",
"956 468 CURVE SMOOTH",
"956 526 OFFCURVE",
"946.333 582.333 OFFCURVE",
"927 637 CURVE SMOOTH",
"907.667 691.667 OFFCURVE",
"880 744.333 OFFCURVE",
"844 795 CURVE SMOOTH",
"808 845.667 OFFCURVE",
"765.5 894.167 OFFCURVE",
"716.5 940.5 CURVE SMOOTH",
"667.5 986.833 OFFCURVE",
"613.167 1030.5 OFFCURVE",
"553.5 1071.5 CURVE SMOOTH",
"493.833 1112.5 OFFCURVE",
"430.333 1150.667 OFFCURVE",
"363 1186 CURVE",
"363 1444 LINE",
"364 1444 LINE",
"488 1370 OFFCURVE",
"594.5 1282.667 OFFCURVE",
"683.5 1182 CURVE SMOOTH",
"772.5 1081.333 OFFCURVE",
"840.833 970.167 OFFCURVE",
"888.5 848.5 CURVE SMOOTH",
"936.167 726.833 OFFCURVE",
"960 596.667 OFFCURVE",
"960 458 CURVE SMOOTH",
"960 374 OFFCURVE",
"951.333 297.333 OFFCURVE",
"934 228 CURVE SMOOTH",
"916.667 158.667 OFFCURVE",
"890 103.333 OFFCURVE",
"854 62 CURVE SMOOTH",
"818 20.667 OFFCURVE",
"772 0 OFFCURVE",
"716 0 CURVE SMOOTH",
"664 0 OFFCURVE",
"619.333 16.5 OFFCURVE",
"582 49.5 CURVE SMOOTH",
"544.667 82.5 OFFCURVE",
"520 118.333 OFFCURVE",
"508 157 CURVE",
"490 108.333 OFFCURVE",
"462 70 OFFCURVE",
"424 42 CURVE SMOOTH",
"386 14 OFFCURVE",
"343 0 OFFCURVE",
"295 0 CURVE SMOOTH",
"295 0 LINE SMOOTH"
);
}
);
width = 1026;
}
);
note = "five-persian";
unicode = 06F5;
},
{
glyphname = "six-persian";
layers = (
{
layerId = "D54EB2A3-8A7B-4735-A983-926C0FC7353D";
paths = (
{
closed = 1;
nodes = (
"28 114.667 OFFCURVE",
"52.5 233.833 OFFCURVE",
"93.5 343.5 CURVE SMOOTH",
"134.5 453.167 OFFCURVE",
"188 551.167 OFFCURVE",
"254 637.5 CURVE SMOOTH",
"320 723.833 OFFCURVE",
"394.333 796.667 OFFCURVE",
"477 856 CURVE",
"723 947 LINE SMOOTH",
"751 957.667 OFFCURVE",
"775 966.5 OFFCURVE",
"795 973.5 CURVE SMOOTH",
"815 980.5 OFFCURVE",
"835.667 987.667 OFFCURVE",
"857 995 CURVE SMOOTH",
"878.333 1002.333 OFFCURVE",
"904.667 1011.333 OFFCURVE",
"936 1022 CURVE",
"936 1021 LINE",
"810 764 LINE",
"712.667 730 OFFCURVE",
"622.5 689 OFFCURVE",
"539.5 641 CURVE SMOOTH",
"456.5 593 OFFCURVE",
"381.667 537 OFFCURVE",
"315 473 CURVE SMOOTH",
"248.333 409 OFFCURVE",
"190.333 336.667 OFFCURVE",
"141 256 CURVE SMOOTH",
"91.667 175.333 OFFCURVE",
"51.667 85.333 OFFCURVE",
"21 -14 CURVE",
"20 -14 LINE",
"20 -14 LINE"
);
},
{
closed = 1;
nodes = (
"427 710.333 OFFCURVE",
"380.167 719 OFFCURVE",
"336.5 735 CURVE SMOOTH",
"292.833 751 OFFCURVE",
"254.5 774.167 OFFCURVE",
"221.5 804.5 CURVE SMOOTH",
"188.5 834.833 OFFCURVE",
"162.833 871.667 OFFCURVE",
"144.5 915 CURVE SMOOTH",
"126.167 958.333 OFFCURVE",
"117 1008.333 OFFCURVE",
"117 1065 CURVE SMOOTH",
"117 1112.333 OFFCURVE",
"124.167 1159.333 OFFCURVE",
"138.5 1206 CURVE SMOOTH",
"152.833 1252.667 OFFCURVE",
"173.833 1295 OFFCURVE",
"201.5 1333 CURVE SMOOTH",
"229.167 1371 OFFCURVE",
"263.333 1401.333 OFFCURVE",
"304 1424 CURVE SMOOTH",
"344.667 1446.667 OFFCURVE",
"391.333 1458 OFFCURVE",
"444 1458 CURVE SMOOTH",
"499.333 1458 OFFCURVE",
"550 1443.833 OFFCURVE",
"596 1415.5 CURVE SMOOTH",
"642 1387.167 OFFCURVE",
"680 1345.333 OFFCURVE",
"710 1290 CURVE SMOOTH",
"740 1234.667 OFFCURVE",
"759 1166.333 OFFCURVE",
"767 1085 CURVE",
"767 1079 LINE",
"749.667 1131.667 OFFCURVE",
"713.167 1173 OFFCURVE",
"657.5 1203 CURVE SMOOTH",
"601.833 1233 OFFCURVE",
"529.333 1248 OFFCURVE",
"440 1248 CURVE SMOOTH",
"338 1248 OFFCURVE",
"259 1229.833 OFFCURVE",
"203 1193.5 CURVE SMOOTH",
"147 1157.167 OFFCURVE",
"119 1115 OFFCURVE",
"119 1067 CURVE SMOOTH",
"119 1012.333 OFFCURVE",
"147 968.5 OFFCURVE",
"203 935.5 CURVE SMOOTH",
"259 902.5 OFFCURVE",
"338 886 OFFCURVE",
"440 886 CURVE SMOOTH",
"494.667 886 OFFCURVE",
"543.833 892 OFFCURVE",
"587.5 904 CURVE SMOOTH",
"631.167 916 OFFCURVE",
"676.333 930.333 OFFCURVE",
"723 947 CURVE",
"477 709 LINE",
"477 709 LINE SMOOTH"
);
}
);
width = 962;
}
);
note = "six-persian";
unicode = 06F6;
},
{
glyphname = "four-persian.urdu";
layers = (
{
layerId = "D54EB2A3-8A7B-4735-A983-926C0FC7353D";
paths = (
{
closed = 1;
nodes = (
"277.333 4.667 OFFCURVE",
"280.5 29 OFFCURVE",
"283.5 59 CURVE SMOOTH",
"286.5 89 OFFCURVE",
"288 124 OFFCURVE",
"288 164 CURVE SMOOTH",
"288 254.667 OFFCURVE",
"280.333 335.167 OFFCURVE",
"265 405.5 CURVE SMOOTH",
"249.667 475.833 OFFCURVE",
"230.667 540.167 OFFCURVE",
"208 598.5 CURVE SMOOTH",
"185.333 656.833 OFFCURVE",
"162.667 713.5 OFFCURVE",
"140 768.5 CURVE SMOOTH",
"117.333 823.5 OFFCURVE",
"98.333 881 OFFCURVE",
"83 941 CURVE SMOOTH",
"67.667 1001 OFFCURVE",
"60 1068.333 OFFCURVE",
"60 1143 CURVE SMOOTH",
"60 1201 OFFCURVE",
"71.167 1253.833 OFFCURVE",
"93.5 1301.5 CURVE SMOOTH",
"115.833 1349.167 OFFCURVE",
"146.5 1387.167 OFFCURVE",
"185.5 1415.5 CURVE SMOOTH",
"224.5 1443.833 OFFCURVE",
"269 1458 OFFCURVE",
"319 1458 CURVE SMOOTH",
"374.333 1458 OFFCURVE",
"424.333 1441 OFFCURVE",
"469 1407 CURVE SMOOTH",
"513.667 1373 OFFCURVE",
"545.333 1321.667 OFFCURVE",
"564 1253 CURVE",
"537 1243 LINE",
"555 1299 OFFCURVE",
"589.833 1346.667 OFFCURVE",
"641.5 1386 CURVE SMOOTH",
"693.167 1425.333 OFFCURVE",
"757.333 1445 OFFCURVE",
"834 1445 CURVE",
"834 1225 LINE",
"760 1232.333 OFFCURVE",
"700.167 1226 OFFCURVE",
"654.5 1206 CURVE SMOOTH",
"608.833 1186 OFFCURVE",
"575.667 1156.333 OFFCURVE",
"555 1117 CURVE SMOOTH",
"534.333 1077.667 OFFCURVE",
"524 1032.333 OFFCURVE",
"524 981 CURVE",
"523 981 LINE",
"523 1039 OFFCURVE",
"511 1088.667 OFFCURVE",
"487 1130 CURVE SMOOTH",
"463 1171.333 OFFCURVE",
"431 1203 OFFCURVE",
"391 1225 CURVE SMOOTH",
"351 1247 OFFCURVE",
"306.667 1258 OFFCURVE",
"258 1258 CURVE SMOOTH",
"204.667 1258 OFFCURVE",
"159 1246.5 OFFCURVE",
"121 1223.5 CURVE SMOOTH",
"83 1200.5 OFFCURVE",
"64 1170.333 OFFCURVE",
"64 1133 CURVE SMOOTH",
"64 1109 OFFCURVE",
"72 1084.833 OFFCURVE",
"88 1060.5 CURVE SMOOTH",
"104 1036.167 OFFCURVE",
"124.667 1010.333 OFFCURVE",
"150 983 CURVE SMOOTH",
"175.333 955.667 OFFCURVE",
"202 925.167 OFFCURVE",
"230 891.5 CURVE SMOOTH",
"258 857.833 OFFCURVE",
"284.667 819.167 OFFCURVE",
"310 775.5 CURVE SMOOTH",
"335.333 731.833 OFFCURVE",
"356 681.833 OFFCURVE",
"372 625.5 CURVE SMOOTH",
"388 569.167 OFFCURVE",
"396 504.333 OFFCURVE",
"396 431 CURVE SMOOTH",
"396 385 OFFCURVE",
"392.667 340.833 OFFCURVE",
"386 298.5 CURVE SMOOTH",
"379.333 256.167 OFFCURVE",
"370.333 216.167 OFFCURVE",
"359 178.5 CURVE SMOOTH",
"347.667 140.833 OFFCURVE",
"334.667 105.833 OFFCURVE",
"320 73.5 CURVE SMOOTH",
"305.333 41.167 OFFCURVE",
"290.333 12 OFFCURVE",
"275 -14 CURVE",
"274 -14 LINE",
"274 -14 LINE"
);
}
);
width = 874;
}
);
note = "four-persian.urdu";
},
{
glyphname = "seven-persian.urdu";
layers = (
{
layerId = "D54EB2A3-8A7B-4735-A983-926C0FC7353D";
paths = (
{
closed = 1;
nodes = (
"319.333 -1 OFFCURVE",
"221.833 27.667 OFFCURVE",
"159.5 85 CURVE SMOOTH",
"97.167 142.333 OFFCURVE",
"66 231.667 OFFCURVE",
"66 353 CURVE SMOOTH",
"66 464.333 OFFCURVE",
"88.833 581.667 OFFCURVE",
"134.5 705 CURVE SMOOTH",
"180.167 828.333 OFFCURVE",
"241.5 953.667 OFFCURVE",
"318.5 1081 CURVE SMOOTH",
"395.5 1208.333 OFFCURVE",
"480.667 1334 OFFCURVE",
"574 1458 CURVE",
"575 1458 LINE",
"575 1158 LINE",
"495.667 1087.333 OFFCURVE",
"424.833 1017.333 OFFCURVE",
"362.5 948 CURVE SMOOTH",
"300.167 878.667 OFFCURVE",
"247.5 811.833 OFFCURVE",
"204.5 747.5 CURVE SMOOTH",
"161.5 683.167 OFFCURVE",
"128.833 623 OFFCURVE",
"106.5 567 CURVE SMOOTH",
"84.167 511 OFFCURVE",
"73 461 OFFCURVE",
"73 417 CURVE SMOOTH",
"73 343 OFFCURVE",
"103.833 291 OFFCURVE",
"165.5 261 CURVE SMOOTH",
"227.167 231 OFFCURVE",
"312 216 OFFCURVE",
"420 216 CURVE SMOOTH",
"506 216 OFFCURVE",
"583.333 221.833 OFFCURVE",
"652 233.5 CURVE SMOOTH",
"720.667 245.167 OFFCURVE",
"775.667 257.333 OFFCURVE",
"817 270 CURVE",
"817 269 LINE",
"696 28 LINE",
"675.333 21.333 OFFCURVE",
"642 14.833 OFFCURVE",
"596 8.5 CURVE SMOOTH",
"550 2.167 OFFCURVE",
"502 -1 OFFCURVE",
"452 -1 CURVE SMOOTH",
"452 -1 LINE SMOOTH"
);
}
);
width = 838;
}
);
note = "seven-persian.urdu";
},
{
glyphname = period;
layers = (
{
layerId = "D54EB2A3-8A7B-4735-A983-926C0FC7353D";
paths = (
{
closed = 1;
nodes = (
"168 -14 OFFCURVE",
"149.667 -9 OFFCURVE",
"133 1 CURVE SMOOTH",
"116.333 11 OFFCURVE",
"103 24.333 OFFCURVE",
"93 41 CURVE SMOOTH",
"83 57.667 OFFCURVE",
"78 76 OFFCURVE",
"78 96 CURVE SMOOTH",
"78 116.667 OFFCURVE",
"83 135.333 OFFCURVE",
"93 152 CURVE SMOOTH",
"103 168.667 OFFCURVE",
"116.333 181.833 OFFCURVE",
"133 191.5 CURVE SMOOTH",
"149.667 201.167 OFFCURVE",
"168 206 OFFCURVE",
"188 206 CURVE SMOOTH",
"208.667 206 OFFCURVE",
"227.167 201.167 OFFCURVE",
"243.5 191.5 CURVE SMOOTH",
"259.833 181.833 OFFCURVE",
"273 168.667 OFFCURVE",
"283 152 CURVE SMOOTH",
"293 135.333 OFFCURVE",
"298 116.667 OFFCURVE",
"298 96 CURVE SMOOTH",
"298 76 OFFCURVE",
"293 57.667 OFFCURVE",
"283 41 CURVE SMOOTH",
"273 24.333 OFFCURVE",
"259.833 11 OFFCURVE",
"243.5 1 CURVE SMOOTH",
"227.167 -9 OFFCURVE",
"208.667 -14 OFFCURVE",
"188 -14 CURVE SMOOTH",
"188 -14 LINE SMOOTH"
);
}
);
width = 376;
}
);
note = period;
unicode = 002E;
},
{
glyphname = comma;
layers = (
{
layerId = "D54EB2A3-8A7B-4735-A983-926C0FC7353D";
paths = (
{
closed = 1;
nodes = (
"73 -228 LINE",
"73 -226 LINE",
"106.333 -216.667 OFFCURVE",
"136.667 -198 OFFCURVE",
"164 -170 CURVE SMOOTH",
"191.333 -142 OFFCURVE",
"205 -106 OFFCURVE",
"205 -62 CURVE SMOOTH",
"205 -27.333 OFFCURVE",
"192.833 2.833 OFFCURVE",
"168.5 28.5 CURVE SMOOTH",
"144.167 54.167 OFFCURVE",
"113 69 OFFCURVE",
"75 73 CURVE",
"75 97.667 OFFCURVE",
"79.333 120 OFFCURVE",
"88 140 CURVE SMOOTH",
"96.667 160 OFFCURVE",
"109.167 176 OFFCURVE",
"125.5 188 CURVE SMOOTH",
"141.833 200 OFFCURVE",
"161 206 OFFCURVE",
"183 206 CURVE SMOOTH",
"219 206 OFFCURVE",
"247.5 190.667 OFFCURVE",
"268.5 160 CURVE SMOOTH",
"289.5 129.333 OFFCURVE",
"300 92.333 OFFCURVE",
"300 49 CURVE SMOOTH",
"300 3.667 OFFCURVE",
"288.833 -39.167 OFFCURVE",
"266.5 -79.5 CURVE SMOOTH",
"244.167 -119.833 OFFCURVE",
"215.667 -153.333 OFFCURVE",
"181 -180 CURVE SMOOTH",
"146.333 -206.667 OFFCURVE",
"110.333 -222.667 OFFCURVE",
"73 -228 CURVE"
);
}
);
width = 376;
}
);
note = comma;
unicode = 002C;
},
{
glyphname = colon;
layers = (
{
layerId = "D54EB2A3-8A7B-4735-A983-926C0FC7353D";
paths = (
{
closed = 1;
nodes = (
"180.667 704 OFFCURVE",
"162.667 708.833 OFFCURVE",
"146 718.5 CURVE SMOOTH",
"129.333 728.167 OFFCURVE",
"116.167 741.167 OFFCURVE",
"106.5 757.5 CURVE SMOOTH",
"96.833 773.833 OFFCURVE",
"92 792 OFFCURVE",
"92 812 CURVE SMOOTH",
"92 832.667 OFFCURVE",
"96.833 851.167 OFFCURVE",
"106.5 867.5 CURVE SMOOTH",
"116.167 883.833 OFFCURVE",
"129.333 896.667 OFFCURVE",
"146 906 CURVE SMOOTH",
"162.667 915.333 OFFCURVE",
"180.667 920 OFFCURVE",
"200 920 CURVE SMOOTH",
"220 920 OFFCURVE",
"238.167 915.333 OFFCURVE",
"254.5 906 CURVE SMOOTH",
"270.833 896.667 OFFCURVE",
"283.833 883.833 OFFCURVE",
"293.5 867.5 CURVE SMOOTH",
"303.167 851.167 OFFCURVE",
"308 832.667 OFFCURVE",
"308 812 CURVE SMOOTH",
"308 792 OFFCURVE",
"303.167 773.833 OFFCURVE",
"293.5 757.5 CURVE SMOOTH",
"283.833 741.167 OFFCURVE",
"270.833 728.167 OFFCURVE",
"254.5 718.5 CURVE SMOOTH",
"238.167 708.833 OFFCURVE",
"220 704 OFFCURVE",
"200 704 CURVE SMOOTH",
"200 704 LINE SMOOTH"
);
},
{
closed = 1;
nodes = (
"180.667 -12 OFFCURVE",
"162.667 -7.167 OFFCURVE",
"146 2.5 CURVE SMOOTH",
"129.333 12.167 OFFCURVE",
"116.167 25.167 OFFCURVE",
"106.5 41.5 CURVE SMOOTH",
"96.833 57.833 OFFCURVE",
"92 76 OFFCURVE",
"92 96 CURVE SMOOTH",
"92 116.667 OFFCURVE",
"96.833 135.167 OFFCURVE",
"106.5 151.5 CURVE SMOOTH",
"116.167 167.833 OFFCURVE",
"129.333 180.667 OFFCURVE",
"146 190 CURVE SMOOTH",
"162.667 199.333 OFFCURVE",
"180.667 204 OFFCURVE",
"200 204 CURVE SMOOTH",
"220 204 OFFCURVE",
"238.167 199.333 OFFCURVE",
"254.5 190 CURVE SMOOTH",
"270.833 180.667 OFFCURVE",
"283.833 167.833 OFFCURVE",
"293.5 151.5 CURVE SMOOTH",
"303.167 135.167 OFFCURVE",
"308 116.667 OFFCURVE",
"308 96 CURVE SMOOTH",
"308 76 OFFCURVE",
"303.167 57.833 OFFCURVE",
"293.5 41.5 CURVE SMOOTH",
"283.833 25.167 OFFCURVE",
"270.833 12.167 OFFCURVE",
"254.5 2.5 CURVE SMOOTH",
"238.167 -7.167 OFFCURVE",
"220 -12 OFFCURVE",
"200 -12 CURVE SMOOTH",
"200 -12 LINE SMOOTH"
);
}
);
width = 400;
}
);
note = colon;
unicode = 003A;
},
{
glyphname = slash;
layers = (
{
layerId = "D54EB2A3-8A7B-4735-A983-926C0FC7353D";
paths = (
{
closed = 1;
nodes = (
"66 -280 LINE",
"564 1580 LINE",
"575 1580 LINE",
"77 -280 LINE",
"66 -280 LINE"
);
}
);
width = 640;
}
);
note = slash;
unicode = 002F;
},
{
glyphname = hyphen;
layers = (
{
layerId = "D54EB2A3-8A7B-4735-A983-926C0FC7353D";
paths = (
{
closed = 1;
nodes = (
"496 540 LINE",
"50 540 LINE",
"50 550 LINE",
"496 550 LINE",
"496 540 LINE"
);
}
);
width = 546;
}
);
note = hyphen;
unicode = 002D;
},
{
glyphname = quotesingle;
layers = (
{
layerId = "D54EB2A3-8A7B-4735-A983-926C0FC7353D";
paths = (
{
closed = 1;
nodes = (
"285.333 1474 OFFCURVE",
"308.5 1463.333 OFFCURVE",
"325.5 1442 CURVE SMOOTH",
"342.5 1420.667 OFFCURVE",
"351 1395 OFFCURVE",
"351 1365 CURVE SMOOTH",
"351 1350.333 OFFCURVE",
"350.5 1336.167 OFFCURVE",
"349.5 1322.5 CURVE SMOOTH",
"348.5 1308.833 OFFCURVE",
"346 1290.833 OFFCURVE",
"342 1268.5 CURVE SMOOTH",
"338 1246.167 OFFCURVE",
"331 1214.333 OFFCURVE",
"321 1173 CURVE SMOOTH",
"256 890 LINE",
"255 890 LINE",
"191 1173 LINE SMOOTH",
"181.667 1214.333 OFFCURVE",
"174.833 1246.167 OFFCURVE",
"170.5 1268.5 CURVE SMOOTH",
"166.167 1290.833 OFFCURVE",
"163.5 1308.833 OFFCURVE",
"162.5 1322.5 CURVE SMOOTH",
"161.5 1336.167 OFFCURVE",
"161 1350.333 OFFCURVE",
"161 1365 CURVE SMOOTH",
"161 1395 OFFCURVE",
"169.667 1420.667 OFFCURVE",
"187 1442 CURVE SMOOTH",
"204.333 1463.333 OFFCURVE",
"227.333 1474 OFFCURVE",
"256 1474 CURVE",
"256 1474 LINE"
);
}
);
width = 512;
}
);
note = quotesingle;
unicode = 0027;
},
{
glyphname = .notdef;
layers = (
{
layerId = "D54EB2A3-8A7B-4735-A983-926C0FC7353D";
paths = (
{
closed = 1;
nodes = (
"199 -494 LINE",
"199 1950 LINE",
"210 1950 LINE",
"210 -494 LINE",
"199 -494 LINE"
);
},
{
closed = 1;
nodes = (
"609 -494 LINE",
"609 1950 LINE",
"620 1950 LINE",
"620 -494 LINE",
"609 -494 LINE"
);
},
{
closed = 1;
nodes = (
"1019 -494 LINE",
"1019 1950 LINE",
"1030 1950 LINE",
"1030 -494 LINE",
"1019 -494 LINE"
);
},
{
closed = 1;
nodes = (
"1429 -494 LINE",
"1429 1950 LINE",
"1440 1950 LINE",
"1440 -494 LINE",
"1429 -494 LINE"
);
},
{
closed = 1;
nodes = (
"1839 -494 LINE",
"1839 1950 LINE",
"1850 1950 LINE",
"1850 -494 LINE",
"1839 -494 LINE"
);
}
);
width = 2048;
}
);
note = .notdef;
},
{
glyphname = degree;
layers = (
{
layerId = "D54EB2A3-8A7B-4735-A983-926C0FC7353D";
paths = (
{
closed = 1;
nodes = (
"276.667 915 OFFCURVE",
"237 925.5 OFFCURVE",
"201 946.5 CURVE SMOOTH",
"165 967.5 OFFCURVE",
"136.333 996 OFFCURVE",
"115 1032 CURVE SMOOTH",
"93.667 1068 OFFCURVE",
"83 1108 OFFCURVE",
"83 1152 CURVE SMOOTH",
"83 1196.667 OFFCURVE",
"93.667 1236.833 OFFCURVE",
"115 1272.5 CURVE SMOOTH",
"136.333 1308.167 OFFCURVE",
"165 1336.5 OFFCURVE",
"201 1357.5 CURVE SMOOTH",
"237 1378.5 OFFCURVE",
"276.667 1389 OFFCURVE",
"320 1389 CURVE SMOOTH",
"363.333 1389 OFFCURVE",
"403 1378.5 OFFCURVE",
"439 1357.5 CURVE SMOOTH",
"475 1336.5 OFFCURVE",
"503.667 1308.167 OFFCURVE",
"525 1272.5 CURVE SMOOTH",
"546.333 1236.833 OFFCURVE",
"557 1196.667 OFFCURVE",
"557 1152 CURVE SMOOTH",
"557 1108 OFFCURVE",
"546.333 1068 OFFCURVE",
"525 1032 CURVE SMOOTH",
"503.667 996 OFFCURVE",
"475 967.5 OFFCURVE",
"439 946.5 CURVE SMOOTH",
"403 925.5 OFFCURVE",
"363.333 915 OFFCURVE",
"320 915 CURVE SMOOTH",
"320 915 LINE SMOOTH"
);
},
{
closed = 1;
nodes = (
"362 923 OFFCURVE",
"400.333 933 OFFCURVE",
"435 953 CURVE SMOOTH",
"469.667 973 OFFCURVE",
"497.333 1000.333 OFFCURVE",
"518 1035 CURVE SMOOTH",
"538.667 1069.667 OFFCURVE",
"549 1108.667 OFFCURVE",
"549 1152 CURVE SMOOTH",
"549 1196 OFFCURVE",
"538.667 1235.167 OFFCURVE",
"518 1269.5 CURVE SMOOTH",
"497.333 1303.833 OFFCURVE",
"469.667 1331 OFFCURVE",
"435 1351 CURVE SMOOTH",
"400.333 1371 OFFCURVE",
"362 1381 OFFCURVE",
"320 1381 CURVE SMOOTH",
"278 1381 OFFCURVE",
"239.667 1371 OFFCURVE",
"205 1351 CURVE SMOOTH",
"170.333 1331 OFFCURVE",
"142.667 1303.833 OFFCURVE",
"122 1269.5 CURVE SMOOTH",
"101.333 1235.167 OFFCURVE",
"91 1196 OFFCURVE",
"91 1152 CURVE SMOOTH",
"91 1108 OFFCURVE",
"101.333 1068.833 OFFCURVE",
"122 1034.5 CURVE SMOOTH",
"142.667 1000.167 OFFCURVE",
"170.333 973 OFFCURVE",
"205 953 CURVE SMOOTH",
"239.667 933 OFFCURVE",
"278 923 OFFCURVE",
"320 923 CURVE",
"320 923 LINE"
);
}
);
width = 640;
}
);
note = degree;
unicode = 00B0;
},
{
glyphname = plus;
layers = (
{
layerId = "D54EB2A3-8A7B-4735-A983-926C0FC7353D";
paths = (
{
closed = 1;
nodes = (
"105 540 LINE",
"105 550 LINE",
"943 550 LINE",
"943 540 LINE",
"105 540 LINE"
);
},
{
closed = 1;
nodes = (
"519 126 LINE",
"519 964 LINE",
"529 964 LINE",
"529 126 LINE",
"519 126 LINE"
);
}
);
width = 1048;
}
);
note = plus;
unicode = 002B;
},
{
glyphname = minus;
layers = (
{
layerId = "D54EB2A3-8A7B-4735-A983-926C0FC7353D";
paths = (
{
closed = 1;
nodes = (
"105 540 LINE",
"105 550 LINE",
"943 550 LINE",
"943 540 LINE",
"105 540 LINE"
);
}
);
width = 1048;
}
);
note = minus;
unicode = 2212;
},
{
glyphname = percent;
layers = (
{
layerId = "D54EB2A3-8A7B-4735-A983-926C0FC7353D";
paths = (
{
closed = 1;
nodes = (
"295 757 OFFCURVE",
"248.667 770.5 OFFCURVE",
"206 797.5 CURVE SMOOTH",
"163.333 824.5 OFFCURVE",
"129.167 863.833 OFFCURVE",
"103.5 915.5 CURVE SMOOTH",
"77.833 967.167 OFFCURVE",
"65 1030 OFFCURVE",
"65 1104 CURVE SMOOTH",
"65 1180 OFFCURVE",
"77.833 1243.833 OFFCURVE",
"103.5 1295.5 CURVE SMOOTH",
"129.167 1347.167 OFFCURVE",
"163 1386.167 OFFCURVE",
"205 1412.5 CURVE SMOOTH",
"247 1438.833 OFFCURVE",
"292.333 1452 OFFCURVE",
"341 1452 CURVE SMOOTH",
"391.667 1452 OFFCURVE",
"438.167 1438.5 OFFCURVE",
"480.5 1411.5 CURVE SMOOTH",
"522.833 1384.5 OFFCURVE",
"556.833 1345.333 OFFCURVE",
"582.5 1294 CURVE SMOOTH",
"608.167 1242.667 OFFCURVE",
"621 1179.667 OFFCURVE",
"621 1105 CURVE SMOOTH",
"621 1029 OFFCURVE",
"608.333 965.167 OFFCURVE",
"583 913.5 CURVE SMOOTH",
"557.667 861.833 OFFCURVE",
"524.167 822.833 OFFCURVE",
"482.5 796.5 CURVE SMOOTH",
"440.833 770.167 OFFCURVE",
"395 757 OFFCURVE",
"345 757 CURVE SMOOTH",
"345 757 LINE SMOOTH"
);
},
{
closed = 1;
nodes = (
"373 760 OFFCURVE",
"396.333 770.5 OFFCURVE",
"415 791.5 CURVE SMOOTH",
"433.667 812.5 OFFCURVE",
"447.667 847 OFFCURVE",
"457 895 CURVE SMOOTH",
"466.333 943 OFFCURVE",
"471 1008 OFFCURVE",
"471 1090 CURVE SMOOTH",
"471 1173.333 OFFCURVE",
"466 1241.333 OFFCURVE",
"456 1294 CURVE SMOOTH",
"446 1346.667 OFFCURVE",
"431.5 1385.667 OFFCURVE",
"412.5 1411 CURVE SMOOTH",
"393.5 1436.333 OFFCURVE",
"369.667 1449 OFFCURVE",
"341 1449 CURVE SMOOTH",
"313.667 1449 OFFCURVE",
"290.667 1438.667 OFFCURVE",
"272 1418 CURVE SMOOTH",
"253.333 1397.333 OFFCURVE",
"239.167 1362.833 OFFCURVE",
"229.5 1314.5 CURVE SMOOTH",
"219.833 1266.167 OFFCURVE",
"215 1201 OFFCURVE",
"215 1119 CURVE SMOOTH",
"215 1036.333 OFFCURVE",
"220 968.5 OFFCURVE",
"230 915.5 CURVE SMOOTH",
"240 862.5 OFFCURVE",
"254.833 823.333 OFFCURVE",
"274.5 798 CURVE SMOOTH",
"294.167 772.667 OFFCURVE",
"317.667 760 OFFCURVE",
"345 760 CURVE",
"345 760 LINE"
);
},
{
closed = 1;
nodes = (
"335 0 LINE",
"1103 1444 LINE",
"1112 1444 LINE",
"344 0 LINE",
"335 0 LINE"
);
},
{
closed = 1;
nodes = (
"1058 -7 OFFCURVE",
"1011.667 6.5 OFFCURVE",
"969 33.5 CURVE SMOOTH",
"926.333 60.5 OFFCURVE",
"892.167 99.833 OFFCURVE",
"866.5 151.5 CURVE SMOOTH",
"840.833 203.167 OFFCURVE",
"828 266 OFFCURVE",
"828 340 CURVE SMOOTH",
"828 416 OFFCURVE",
"840.833 479.833 OFFCURVE",
"866.5 531.5 CURVE SMOOTH",
"892.167 583.167 OFFCURVE",
"926 622.167 OFFCURVE",
"968 648.5 CURVE SMOOTH",
"1010 674.833 OFFCURVE",
"1055.333 688 OFFCURVE",
"1104 688 CURVE SMOOTH",
"1154.667 688 OFFCURVE",
"1201.167 674.5 OFFCURVE",
"1243.5 647.5 CURVE SMOOTH",
"1285.833 620.5 OFFCURVE",
"1319.833 581.333 OFFCURVE",
"1345.5 530 CURVE SMOOTH",
"1371.167 478.667 OFFCURVE",
"1384 415.667 OFFCURVE",
"1384 341 CURVE SMOOTH",
"1384 265 OFFCURVE",
"1371.333 201.167 OFFCURVE",
"1346 149.5 CURVE SMOOTH",
"1320.667 97.833 OFFCURVE",
"1287.167 58.833 OFFCURVE",
"1245.5 32.5 CURVE SMOOTH",
"1203.833 6.167 OFFCURVE",
"1158 -7 OFFCURVE",
"1108 -7 CURVE SMOOTH",
"1108 -7 LINE SMOOTH"
);
},
{
closed = 1;
nodes = (
"1136 -4 OFFCURVE",
"1159.333 6.5 OFFCURVE",
"1178 27.5 CURVE SMOOTH",
"1196.667 48.5 OFFCURVE",
"1210.667 83 OFFCURVE",
"1220 131 CURVE SMOOTH",
"1229.333 179 OFFCURVE",
"1234 244 OFFCURVE",
"1234 326 CURVE SMOOTH",
"1234 409.333 OFFCURVE",
"1229 477.333 OFFCURVE",
"1219 530 CURVE SMOOTH",
"1209 582.667 OFFCURVE",
"1194.5 621.667 OFFCURVE",
"1175.5 647 CURVE SMOOTH",
"1156.5 672.333 OFFCURVE",
"1132.667 685 OFFCURVE",
"1104 685 CURVE SMOOTH",
"1076.667 685 OFFCURVE",
"1053.667 674.667 OFFCURVE",
"1035 654 CURVE SMOOTH",
"1016.333 633.333 OFFCURVE",
"1002.167 598.833 OFFCURVE",
"992.5 550.5 CURVE SMOOTH",
"982.833 502.167 OFFCURVE",
"978 437 OFFCURVE",
"978 355 CURVE SMOOTH",
"978 272.333 OFFCURVE",
"983 204.5 OFFCURVE",
"993 151.5 CURVE SMOOTH",
"1003 98.5 OFFCURVE",
"1017.833 59.333 OFFCURVE",
"1037.5 34 CURVE SMOOTH",
"1057.167 8.667 OFFCURVE",
"1080.667 -4 OFFCURVE",
"1108 -4 CURVE",
"1108 -4 LINE"
);
}
);
width = 1448;
}
);
note = percent;
unicode = 0025;
},
{
glyphname = "percent-ar";
layers = (
{
layerId = "D54EB2A3-8A7B-4735-A983-926C0FC7353D";
paths = (
{
closed = 1;
nodes = (
"266 0 LINE",
"1034 1444 LINE",
"1043 1444 LINE",
"275 0 LINE",
"266 0 LINE"
);
},
{
closed = 1;
nodes = (
"278.333 1144.667 OFFCURVE",
"211.667 1206 OFFCURVE",
"141 1260 CURVE",
"331 1444 LINE",
"368.333 1417.333 OFFCURVE",
"403.5 1388.667 OFFCURVE",
"436.5 1358 CURVE SMOOTH",
"469.5 1327.333 OFFCURVE",
"501 1294.667 OFFCURVE",
"531 1260 CURVE",
"341 1076 LINE",
"341 1076 LINE"
);
},
{
closed = 1;
nodes = (
"917.333 68.667 OFFCURVE",
"850.667 130 OFFCURVE",
"780 184 CURVE",
"970 368 LINE",
"1007.333 341.333 OFFCURVE",
"1042.5 312.667 OFFCURVE",
"1075.5 282 CURVE SMOOTH",
"1108.5 251.333 OFFCURVE",
"1140 218.667 OFFCURVE",
"1170 184 CURVE",
"980 0 LINE",
"980 0 LINE"
);
}
